<svg xmlns="http://www.w3.org/2000/svg" xmlns:xlink="http://www.w3.org/1999/xlink" width="1080" viewBox="0 0 810 809.999993" height="1080" preserveAspectRatio="xMidYMid meet"><defs><clipPath id="59b70bd16f"><path d="M 16.375 564 L 678 564 L 678 622.371094 L 16.375 622.371094 Z M 16.375 564 " clip-rule="nonzero"></path></clipPath><clipPath id="fd7e9b996b"><path d="M 612 509 L 793.375 509 L 793.375 548 L 612 548 Z M 612 509 " clip-rule="nonzero"></path></clipPath><clipPath id="fcfed5cc59"><path d="M 57 187.371094 L 110 187.371094 L 110 234 L 57 234 Z M 57 187.371094 " clip-rule="nonzero"></path></clipPath></defs><g clip-path="url(#59b70bd16f)"><path fill="#763b86" d="M 16.273438 593.402344 C 16.273438 609.339844 164.234375 622.257812 346.765625 622.257812 C 529.277344 622.257812 677.246094 609.339844 677.246094 593.402344 C 677.246094 577.476562 529.277344 564.558594 346.765625 564.558594 C 164.234375 564.558594 16.273438 577.476562 16.273438 593.402344 " fill-opacity="1" fill-rule="nonzero"></path></g><path fill="#763b86" d="M 25.167969 556.851562 C 25.167969 567.199219 59.554688 575.59375 101.96875 575.59375 C 144.382812 575.59375 178.769531 567.199219 178.769531 556.851562 C 178.769531 546.496094 144.382812 538.101562 101.96875 538.101562 C 59.554688 538.101562 25.167969 546.496094 25.167969 556.851562 " fill-opacity="1" fill-rule="nonzero"></path><path fill="#763b86" d="M 507.671875 509.355469 C 507.671875 519.703125 563.542969 528.09375 632.453125 528.09375 C 701.367188 528.09375 757.238281 519.703125 757.238281 509.355469 C 757.238281 499.007812 701.367188 490.613281 632.453125 490.613281 C 563.542969 490.613281 507.671875 499.007812 507.671875 509.355469 " fill-opacity="1" fill-rule="nonzero"></path><g clip-path="url(#fd7e9b996b)"><path fill="#763b86" d="M 612.4375 528.523438 C 612.4375 538.875 652.929688 547.265625 702.859375 547.265625 C 752.789062 547.265625 793.28125 538.875 793.28125 528.523438 C 793.28125 518.167969 752.789062 509.777344 702.859375 509.777344 C 652.929688 509.777344 612.4375 518.167969 612.4375 528.523438 " fill-opacity="1" fill-rule="nonzero"></path></g><path fill="#f89b4f" d="M 663.789062 204.949219 L 508.355469 285.148438 L 591.472656 446.160156 L 746.914062 365.960938 L 663.789062 204.949219 " fill-opacity="1" fill-rule="nonzero"></path><path fill="#f9ab50" d="M 515.699219 289.601562 L 592.796875 438.953125 L 736.457031 364.828125 Z M 515.699219 289.601562 " fill-opacity="1" fill-rule="nonzero"></path><path fill="#e9e9e9" d="M 570.050781 253.324219 L 609.207031 329.15625 L 611.683594 331.066406 L 611.515625 326.75 L 614.9375 329.382812 L 614.769531 325.066406 L 618.199219 327.707031 L 618.035156 323.394531 L 621.445312 326.03125 L 621.277344 321.710938 L 624.691406 324.347656 L 624.515625 320.042969 L 627.9375 322.683594 L 627.769531 318.367188 L 631.183594 321.007812 L 631.015625 316.691406 L 634.429688 319.324219 L 634.261719 315.007812 L 637.683594 317.648438 L 637.507812 313.335938 L 640.929688 315.972656 L 640.761719 311.660156 L 644.175781 314.296875 L 644.007812 309.984375 L 645.351562 311.027344 L 605.980469 234.773438 L 570.050781 253.324219 " fill-opacity="1" fill-rule="nonzero"></path><path fill="#d78744" d="M 623.910156 412.238281 L 601.542969 423.78125 L 590.367188 402.128906 L 612.726562 390.59375 L 623.910156 412.238281 " fill-opacity="1" fill-rule="nonzero"></path><path fill="#d78744" d="M 651.359375 398.074219 L 628.988281 409.617188 L 617.824219 387.964844 L 640.183594 376.433594 L 651.359375 398.074219 " fill-opacity="1" fill-rule="nonzero"></path><path fill="#fddd10" d="M 717.429688 502.410156 C 717.429688 510.019531 711.265625 516.1875 703.660156 516.1875 L 551.144531 516.1875 C 543.539062 516.1875 537.375 510.019531 537.375 502.410156 L 523.59375 425.261719 C 523.59375 417.648438 529.757812 411.484375 537.375 411.484375 L 717.429688 411.484375 C 725.042969 411.484375 731.21875 417.648438 731.21875 425.261719 L 717.429688 502.410156 " fill-opacity="1" fill-rule="nonzero"></path><path fill="#f9a917" d="M 729.371094 435.59375 L 731.21875 425.261719 C 731.21875 417.648438 725.042969 411.484375 717.429688 411.484375 L 537.375 411.484375 C 529.757812 411.484375 523.59375 417.648438 523.59375 425.261719 L 525.425781 435.59375 L 729.371094 435.59375 " fill-opacity="1" fill-rule="nonzero"></path><path fill="#fddd10" d="M 740.632812 414.695312 C 740.632812 422.304688 734.464844 428.472656 726.859375 428.472656 L 528.410156 428.472656 C 520.804688 428.472656 514.636719 422.304688 514.636719 414.695312 L 514.636719 393.566406 C 514.636719 385.964844 520.804688 379.789062 528.410156 379.789062 L 726.859375 379.789062 C 734.464844 379.789062 740.632812 385.964844 740.632812 393.566406 L 740.632812 414.695312 " fill-opacity="1" fill-rule="nonzero"></path><path fill="#fbc113" d="M 726.859375 414.695312 L 528.410156 414.695312 C 520.804688 414.695312 514.636719 408.53125 514.636719 400.925781 L 514.636719 414.695312 C 514.636719 422.304688 520.804688 428.472656 528.410156 428.472656 L 726.859375 428.472656 C 734.464844 428.472656 740.632812 422.304688 740.632812 414.695312 L 740.632812 400.925781 C 740.632812 408.53125 734.464844 414.695312 726.859375 414.695312 " fill-opacity="1" fill-rule="nonzero"></path><path fill="#fff542" d="M 731.21875 388.402344 C 731.21875 390.5 729.519531 392.199219 727.421875 392.199219 L 527.375 392.199219 C 525.285156 392.199219 523.59375 390.5 523.59375 388.402344 C 523.59375 386.316406 525.285156 384.613281 527.375 384.613281 L 727.421875 384.613281 C 729.519531 384.613281 731.21875 386.316406 731.21875 388.402344 " fill-opacity="1" fill-rule="nonzero"></path><path fill="#f9a917" d="M 632.453125 501.726562 C 632.453125 505.144531 629.675781 507.925781 626.253906 507.925781 C 622.824219 507.925781 620.050781 505.144531 620.050781 501.726562 L 620.050781 447.984375 C 620.050781 444.5625 622.824219 441.792969 626.253906 441.792969 C 629.675781 441.792969 632.453125 444.5625 632.453125 447.984375 L 632.453125 501.726562 " fill-opacity="1" fill-rule="nonzero"></path><path fill="#f9a917" d="M 657.957031 501.726562 C 657.957031 505.144531 655.175781 507.925781 651.746094 507.925781 C 648.324219 507.925781 645.542969 505.144531 645.542969 501.726562 L 645.542969 447.984375 C 645.542969 444.5625 648.324219 441.792969 651.746094 441.792969 C 655.175781 441.792969 657.957031 444.5625 657.957031 447.984375 L 657.957031 501.726562 " fill-opacity="1" fill-rule="nonzero"></path><path fill="#f9a917" d="M 683.4375 501.726562 C 683.4375 505.144531 680.667969 507.925781 677.246094 507.925781 C 673.816406 507.925781 671.035156 505.144531 671.035156 501.726562 L 671.035156 447.984375 C 671.035156 444.5625 673.816406 441.792969 677.246094 441.792969 C 680.667969 441.792969 683.4375 444.5625 683.4375 447.984375 L 683.4375 501.726562 " fill-opacity="1" fill-rule="nonzero"></path><path fill="#f9a917" d="M 708.9375 501.726562 C 708.9375 505.144531 706.167969 507.925781 702.738281 507.925781 C 699.316406 507.925781 696.535156 505.144531 696.535156 501.726562 L 696.535156 447.984375 C 696.535156 444.5625 699.316406 441.792969 702.738281 441.792969 C 706.167969 441.792969 708.9375 444.5625 708.9375 447.984375 L 708.9375 501.726562 " fill-opacity="1" fill-rule="nonzero"></path><path fill="#f9a917" d="M 559.417969 501.726562 C 559.417969 505.144531 556.644531 507.925781 553.214844 507.925781 C 549.796875 507.925781 547.015625 505.144531 547.015625 501.726562 L 547.015625 447.984375 C 547.015625 444.5625 549.796875 441.792969 553.214844 441.792969 C 556.644531 441.792969 559.417969 444.5625 559.417969 447.984375 L 559.417969 501.726562 " fill-opacity="1" fill-rule="nonzero"></path><path fill="#f9a917" d="M 584.910156 501.726562 C 584.910156 505.144531 582.128906 507.925781 578.71875 507.925781 C 575.285156 507.925781 572.507812 505.144531 572.507812 501.726562 L 572.507812 447.984375 C 572.507812 444.5625 575.285156 441.792969 578.71875 441.792969 C 582.128906 441.792969 584.910156 444.5625 584.910156 447.984375 L 584.910156 501.726562 " fill-opacity="1" fill-rule="nonzero"></path><path fill="#f9a917" d="M 610.402344 501.726562 C 610.402344 505.144531 607.628906 507.925781 604.207031 507.925781 C 600.777344 507.925781 598.007812 505.144531 598.007812 501.726562 L 598.007812 447.984375 C 598.007812 444.5625 600.777344 441.792969 604.207031 441.792969 C 607.628906 441.792969 610.402344 444.5625 610.402344 447.984375 L 610.402344 501.726562 " fill-opacity="1" fill-rule="nonzero"></path><path fill="#f03a1f" d="M 570.101562 402.820312 C 567.445312 408.167969 561.523438 410.644531 556.855469 408.328125 C 552.191406 406.019531 550.566406 399.8125 553.214844 394.453125 L 582.289062 335.871094 C 584.945312 330.523438 590.875 328.058594 595.53125 330.375 C 600.191406 332.679688 601.824219 338.890625 599.164062 344.238281 L 570.101562 402.820312 " fill-opacity="1" fill-rule="nonzero"></path><path fill="#f25a1a" d="M 564.347656 402.082031 C 563.382812 404.03125 561.023438 404.828125 559.074219 403.863281 C 557.121094 402.898438 556.320312 400.53125 557.296875 398.59375 C 558.261719 396.636719 560.621094 395.847656 562.566406 396.8125 C 564.515625 397.777344 565.3125 400.136719 564.347656 402.082031 " fill-opacity="1" fill-rule="nonzero"></path><path fill="#f03a1f" d="M 688.289062 402.820312 C 690.9375 408.167969 696.878906 410.644531 701.535156 408.328125 C 706.195312 406.019531 707.824219 399.8125 705.167969 394.453125 L 676.105469 335.871094 C 673.445312 330.523438 667.527344 328.058594 662.859375 330.375 C 658.191406 332.679688 656.570312 338.890625 659.21875 344.238281 L 688.289062 402.820312 " fill-opacity="1" fill-rule="nonzero"></path><path fill="#f25a1a" d="M 694.042969 402.082031 C 695.007812 404.03125 697.378906 404.828125 699.324219 403.863281 C 701.273438 402.898438 702.0625 400.53125 701.097656 398.59375 C 700.132812 396.636719 697.761719 395.847656 695.816406 396.8125 C 693.867188 397.777344 693.078125 400.136719 694.042969 402.082031 " fill-opacity="1" fill-rule="nonzero"></path><path fill="#ffffff" d="M 67.925781 539.460938 L 61.390625 538.179688 L 62.046875 528.042969 L 69.207031 528.042969 L 67.925781 539.460938 " fill-opacity="1" fill-rule="nonzero"></path><path fill="#096874" d="M 68.792969 546.320312 C 68.292969 547.714844 51.066406 553.34375 48.90625 554.183594 C 45.003906 555.703125 43.019531 550.632812 46.996094 547.449219 C 49.503906 545.441406 61.390625 538.179688 61.390625 538.179688 L 67.925781 539.460938 C 67.925781 539.460938 69.285156 544.933594 68.792969 546.320312 " fill-opacity="1" fill-rule="nonzero"></path><path fill="#ffffff" d="M 95.425781 539.460938 L 101.96875 538.179688 L 101.300781 528.042969 L 94.144531 528.042969 L 95.425781 539.460938 " fill-opacity="1" fill-rule="nonzero"></path><path fill="#096874" d="M 94.558594 546.320312 C 95.058594 547.714844 112.277344 553.34375 114.453125 554.183594 C 118.347656 555.703125 120.339844 550.632812 116.355469 547.449219 C 113.847656 545.441406 101.96875 538.179688 101.96875 538.179688 L 95.425781 539.460938 C 95.425781 539.460938 94.066406 544.933594 94.558594 546.320312 " fill-opacity="1" fill-rule="nonzero"></path><path fill="#096874" d="M 92.144531 535.59375 L 104.609375 533.339844 L 108.074219 364.742188 L 87.503906 364.742188 L 92.144531 535.59375 " fill-opacity="1" fill-rule="nonzero"></path><path fill="#e1a284" d="M 53.773438 357.164062 L 49.652344 359.71875 L 44.996094 352.191406 L 49.109375 349.640625 L 53.773438 357.164062 " fill-opacity="1" fill-rule="nonzero"></path><path fill="#e1a284" d="M 57.414062 360.628906 L 50.214844 364.488281 L 47.820312 360.628906 C 44.449219 355.175781 51.582031 351.210938 54.757812 356.332031 C 55.257812 357.148438 57.414062 360.628906 57.414062 360.628906 " fill-opacity="1" fill-rule="nonzero"></path><path fill="#e1a284" d="M 55.371094 368.933594 C 56.238281 370.347656 54.574219 371.53125 53.636719 370.003906 C 52.695312 368.496094 49.203125 362.867188 49.203125 362.867188 L 50.941406 361.785156 C 50.941406 361.785156 54.496094 367.53125 55.371094 368.933594 " fill-opacity="1" fill-rule="nonzero"></path><path fill="#e1a284" d="M 57.503906 368.511719 C 58.371094 369.917969 56.707031 371.101562 55.773438 369.582031 C 54.835938 368.066406 51.335938 362.4375 51.335938 362.4375 L 53.082031 361.367188 C 53.082031 361.367188 56.636719 367.101562 57.503906 368.511719 " fill-opacity="1" fill-rule="nonzero"></path><path fill="#e1a284" d="M 58.835938 366.792969 C 59.707031 368.199219 58.046875 369.382812 57.101562 367.863281 C 56.171875 366.347656 52.679688 360.71875 52.679688 360.71875 L 54.40625 359.648438 C 54.40625 359.648438 57.960938 365.382812 58.835938 366.792969 " fill-opacity="1" fill-rule="nonzero"></path><path fill="#e1a284" d="M 59.984375 364.769531 C 60.855469 366.171875 59.1875 367.363281 58.25 365.847656 C 57.308594 364.328125 53.820312 358.699219 53.820312 358.699219 L 55.554688 357.628906 C 55.554688 357.628906 59.109375 363.367188 59.984375 364.769531 " fill-opacity="1" fill-rule="nonzero"></path><path fill="#e1a284" d="M 59.089844 357.640625 C 60.273438 358.253906 59.828125 360.15625 58.449219 359.585938 C 56.292969 358.671875 55.265625 359.585938 55.265625 359.585938 L 53.011719 354.5625 C 53.011719 354.5625 56.941406 356.535156 59.089844 357.640625 " fill-opacity="1" fill-rule="nonzero"></path><path fill="#e1a284" d="M 77.828125 268.835938 L 91.609375 268.835938 L 91.609375 254 L 77.828125 254 L 77.828125 268.835938 " fill-opacity="1" fill-rule="nonzero"></path><path fill="#5c399d" d="M 108.074219 364.742188 L 64.039062 364.742188 C 64.039062 364.742188 57.214844 278.667969 61.03125 274.589844 C 64.84375 270.511719 74.328125 266.984375 85.125 266.984375 C 95.925781 266.984375 107.871094 271.703125 109.898438 274.589844 C 111.933594 277.476562 108.074219 364.742188 108.074219 364.742188 " fill-opacity="1" fill-rule="nonzero"></path><path fill="#cd8866" d="M 77.828125 259.832031 C 77.828125 259.832031 80.742188 263.671875 84.453125 263.671875 C 88.171875 263.671875 91.609375 259.832031 91.609375 259.832031 L 91.609375 254 L 77.828125 254 L 77.828125 259.832031 " fill-opacity="1" fill-rule="nonzero"></path><path fill="#e1a284" d="M 106.609375 228.074219 C 106.609375 251.71875 92.574219 260.558594 84.988281 260.558594 C 77.40625 260.558594 63.609375 252.269531 63.609375 228.636719 C 63.609375 204.992188 72.265625 191.363281 84.988281 191.363281 C 97.714844 191.363281 106.609375 204.441406 106.609375 228.074219 " fill-opacity="1" fill-rule="nonzero"></path><path fill="#e1a284" d="M 112.539062 230.996094 C 112.539062 235.460938 108.292969 242.265625 105.96875 239.082031 C 104.46875 237.011719 104.082031 235.460938 104.082031 230.996094 C 104.082031 226.53125 105.96875 222.910156 108.3125 222.910156 C 110.652344 222.910156 112.539062 226.53125 112.539062 230.996094 " fill-opacity="1" fill-rule="nonzero"></path><path fill="#e1a284" d="M 57.207031 230.996094 C 57.207031 235.460938 61.460938 242.265625 63.777344 239.082031 C 65.285156 237.011719 65.660156 235.460938 65.660156 230.996094 C 65.660156 226.53125 63.777344 222.910156 61.433594 222.910156 C 59.101562 222.910156 57.207031 226.53125 57.207031 230.996094 " fill-opacity="1" fill-rule="nonzero"></path><g clip-path="url(#fcfed5cc59)"><path fill="#372158" d="M 104.511719 232.890625 C 105.90625 232.785156 104.25 222.148438 109.441406 223.234375 C 109.441406 199.589844 105.390625 187.65625 85.730469 187.65625 C 79.136719 187.65625 65.265625 188.585938 66.292969 198.257812 C 57.144531 195.46875 55.089844 212.84375 58.871094 224.574219 C 64.292969 219.171875 63.949219 233.378906 65.660156 233.582031 C 66.785156 233.714844 67.976562 228.609375 66.695312 222.148438 C 65.496094 216.085938 70.925781 211.148438 73.8125 213.597656 C 76.46875 202.074219 89.925781 223.839844 101.847656 218.769531 C 104.855469 226.621094 103.109375 232.984375 104.511719 232.890625 " fill-opacity="1" fill-rule="nonzero"></path></g><path fill="#602683" d="M 87.371094 274.589844 L 97.390625 269.003906 L 92.488281 263.671875 L 85.125 266.984375 L 87.371094 274.589844 " fill-opacity="1" fill-rule="nonzero"></path><path fill="#602683" d="M 82.546875 274.589844 L 72.855469 269.003906 L 77.089844 264.058594 L 85.125 266.984375 L 82.546875 274.589844 " fill-opacity="1" fill-rule="nonzero"></path><path fill="#5c399d" d="M 61.03125 274.589844 C 59.792969 275.378906 30.890625 293.417969 29.292969 314.492188 C 28.132812 329.960938 46.054688 354.386719 46.054688 354.386719 L 51.046875 351.359375 C 51.046875 351.359375 39.914062 331.523438 39.914062 317.085938 C 39.914062 302.652344 62.171875 294.226562 62.171875 294.226562 L 61.03125 274.589844 " fill-opacity="1" fill-rule="nonzero"></path><path fill="#e1a284" d="M 171.980469 348.648438 L 170.050781 353.097656 L 161.917969 349.570312 L 163.847656 345.132812 L 171.980469 348.648438 " fill-opacity="1" fill-rule="nonzero"></path><path fill="#e1a284" d="M 176.945312 349.414062 L 173.226562 356.691406 L 169.066406 354.886719 C 163.179688 352.332031 166.769531 345.011719 172.304688 347.40625 C 173.179688 347.78125 176.945312 349.414062 176.945312 349.414062 " fill-opacity="1" fill-rule="nonzero"></path><path fill="#e1a284" d="M 180.007812 357.402344 C 181.523438 358.058594 180.832031 359.980469 179.191406 359.269531 C 177.550781 358.558594 171.472656 355.929688 171.472656 355.929688 L 172.285156 354.0625 C 172.285156 354.0625 178.480469 356.746094 180.007812 357.402344 " fill-opacity="1" fill-rule="nonzero"></path><path fill="#e1a284" d="M 181.515625 355.839844 C 183.03125 356.5 182.339844 358.417969 180.699219 357.699219 C 179.066406 357 172.988281 354.367188 172.988281 354.367188 L 173.796875 352.492188 C 173.796875 352.492188 179.996094 355.175781 181.515625 355.839844 " fill-opacity="1" fill-rule="nonzero"></path><path fill="#e1a284" d="M 181.628906 353.667969 C 183.136719 354.324219 182.445312 356.246094 180.8125 355.535156 C 179.179688 354.824219 173.101562 352.191406 173.101562 352.191406 L 173.910156 350.324219 C 173.910156 350.324219 180.101562 353 181.628906 353.667969 " fill-opacity="1" fill-rule="nonzero"></path><path fill="#e1a284" d="M 181.417969 351.351562 C 182.9375 352.007812 182.242188 353.929688 180.601562 353.21875 C 178.972656 352.515625 172.890625 349.878906 172.890625 349.878906 L 173.691406 348.007812 C 173.691406 348.007812 179.890625 350.691406 181.417969 351.351562 " fill-opacity="1" fill-rule="nonzero"></path><path fill="#e1a284" d="M 176.609375 346 C 177.925781 345.824219 178.644531 347.648438 177.199219 347.957031 C 174.902344 348.457031 174.585938 349.78125 174.585938 349.78125 L 169.855469 346.949219 C 169.855469 346.949219 174.214844 346.316406 176.609375 346 " fill-opacity="1" fill-rule="nonzero"></path><path fill="#5c399d" d="M 108.074219 299.257812 C 108.074219 299.257812 110.496094 315.859375 128.480469 330.804688 C 140.410156 340.730469 164.039062 350.773438 164.039062 350.773438 L 166.417969 345.429688 C 166.417969 345.429688 145.328125 333.582031 134.917969 322.023438 C 121.574219 307.214844 114.636719 277.753906 109.898438 274.589844 C 105.164062 271.421875 108.074219 299.257812 108.074219 299.257812 " fill-opacity="1" fill-rule="nonzero"></path><path fill="#108894" d="M 59.003906 533.339844 L 71.519531 535.59375 L 89.011719 390.640625 L 92.144531 387.289062 L 96.460938 364.742188 L 64.039062 364.742188 L 59.003906 533.339844 " fill-opacity="1" fill-rule="nonzero"></path><path fill="#28122d" d="M 539.171875 470.496094 C 539.171875 477.238281 533.707031 482.710938 526.953125 482.710938 L 167.003906 487.507812 C 167.003906 487.507812 154.304688 477.238281 154.304688 470.496094 L 154.304688 241.878906 C 154.304688 235.132812 159.769531 229.664062 166.515625 229.664062 L 526.953125 229.664062 C 533.707031 229.664062 544.769531 241.773438 544.769531 241.773438 L 539.171875 470.496094 " fill-opacity="1" fill-rule="nonzero"></path><path fill="#3e1e4f" d="M 548.875 479.511719 C 548.875 486.253906 543.410156 491.726562 536.664062 491.726562 L 176.226562 491.726562 C 169.472656 491.726562 164.003906 486.253906 164.003906 479.511719 L 164.003906 250.894531 C 164.003906 244.148438 169.472656 238.675781 176.226562 238.675781 L 536.664062 238.675781 C 543.410156 238.675781 548.875 244.148438 548.875 250.894531 L 548.875 479.511719 " fill-opacity="1" fill-rule="nonzero"></path><path fill="#e2e2e2" d="M 73.125 556.851562 L 73.125 574.6875 C 73.125 581.433594 79.257812 586.90625 86.8125 586.90625 L 611.359375 586.90625 C 618.910156 586.90625 625.035156 581.433594 625.035156 574.6875 L 625.035156 556.851562 L 73.125 556.851562 " fill-opacity="1" fill-rule="nonzero"></path><path fill="#a992ca" d="M 175.734375 475.90625 L 537.144531 475.90625 L 537.144531 261.699219 L 175.734375 261.699219 Z M 175.734375 475.90625 " fill-opacity="1" fill-rule="nonzero"></path><path fill="#816e98" d="M 180.882812 472.3125 L 180.882812 261.699219 L 175.734375 261.699219 L 175.734375 475.90625 L 537.144531 475.90625 L 537.144531 472.3125 L 180.882812 472.3125 " fill-opacity="1" fill-rule="nonzero"></path><path fill="#a992ca" d="M 361.589844 251.917969 C 361.589844 254.761719 359.289062 257.066406 356.441406 257.066406 C 353.597656 257.066406 351.289062 254.761719 351.289062 251.917969 C 351.289062 249.078125 353.597656 246.773438 356.441406 246.773438 C 359.289062 246.773438 361.589844 249.078125 361.589844 251.917969 " fill-opacity="1" fill-rule="nonzero"></path><path fill="#cdbee0" d="M 180.882812 436.636719 L 180.882812 389.910156 L 395.675781 261.699219 L 470.835938 261.699219 L 180.882812 436.636719 " fill-opacity="1" fill-rule="nonzero"></path><path fill="#b4a6c4" d="M 175.734375 439.742188 L 175.734375 392.988281 L 180.882812 389.910156 L 180.882812 436.636719 L 175.734375 439.742188 " fill-opacity="1" fill-rule="nonzero"></path><path fill="#cdbee0" d="M 180.882812 468.628906 L 180.882812 451.964844 L 496.390625 261.699219 L 519.699219 261.699219 L 180.882812 468.628906 " fill-opacity="1" fill-rule="nonzero"></path><path fill="#b4a6c4" d="M 175.734375 471.777344 L 175.734375 455.078125 L 180.882812 451.964844 L 180.882812 468.628906 L 175.734375 471.777344 " fill-opacity="1" fill-rule="nonzero"></path><path fill="#ffffff" d="M 625.035156 556.851562 L 73.125 556.851562 L 169.65625 491.726562 L 543.242188 491.726562 L 625.035156 556.851562 " fill-opacity="1" fill-rule="nonzero"></path><path fill="#deddde" d="M 175.820312 500.953125 L 117.898438 540.023438 L 583.425781 540.023438 L 534.347656 500.953125 L 175.820312 500.953125 " fill-opacity="1" fill-rule="nonzero"></path><path fill="#ffffff" d="M 506.363281 474.546875 L 214.21875 474.546875 L 214.21875 273.054688 L 506.363281 273.054688 L 506.363281 474.546875 " fill-opacity="1" fill-rule="nonzero"></path><path fill="#00adef" d="M 506.363281 297.214844 L 214.21875 297.214844 L 214.21875 273.054688 L 506.363281 273.054688 L 506.363281 297.214844 " fill-opacity="1" fill-rule="nonzero"></path><path fill="#ffffff" d="M 460.554688 284.246094 C 460.554688 288.453125 457.136719 291.875 452.925781 291.875 C 448.707031 291.875 445.292969 288.453125 445.292969 284.246094 C 445.292969 280.027344 448.707031 276.617188 452.925781 276.617188 C 457.136719 276.617188 460.554688 280.027344 460.554688 284.246094 " fill-opacity="1" fill-rule="nonzero"></path><path fill="#ffffff" d="M 481.679688 284.246094 C 481.679688 288.453125 478.257812 291.875 474.039062 291.875 C 469.828125 291.875 466.417969 288.453125 466.417969 284.246094 C 466.417969 280.027344 469.828125 276.617188 474.039062 276.617188 C 478.257812 276.617188 481.679688 280.027344 481.679688 284.246094 " fill-opacity="1" fill-rule="nonzero"></path><path fill="#ffffff" d="M 500.511719 284.246094 C 500.511719 288.453125 497.09375 291.875 492.871094 291.875 C 488.652344 291.875 485.242188 288.453125 485.242188 284.246094 C 485.242188 280.027344 488.652344 276.617188 492.871094 276.617188 C 497.09375 276.617188 500.511719 280.027344 500.511719 284.246094 " fill-opacity="1" fill-rule="nonzero"></path><path fill="#ffffff" d="M 414.238281 283.992188 C 414.238281 287.21875 411.617188 289.839844 408.386719 289.839844 L 226.683594 289.839844 C 223.453125 289.839844 220.832031 287.21875 220.832031 283.992188 C 220.832031 280.753906 223.453125 278.132812 226.683594 278.132812 L 408.386719 278.132812 C 411.617188 278.132812 414.238281 280.753906 414.238281 283.992188 " fill-opacity="1" fill-rule="nonzero"></path><path fill="#7154af" d="M 338.914062 431.296875 L 237.628906 431.296875 L 237.628906 330.039062 L 338.914062 330.039062 L 338.914062 431.296875 " fill-opacity="1" fill-rule="nonzero"></path><path fill="#d3d2d2" d="M 488.546875 343.519531 L 365.378906 343.519531 L 365.378906 330.039062 L 488.546875 330.039062 L 488.546875 343.519531 " fill-opacity="1" fill-rule="nonzero"></path><path fill="#d3d2d2" d="M 488.546875 357.007812 L 365.378906 357.007812 L 365.378906 347.335938 L 488.546875 347.335938 L 488.546875 357.007812 " fill-opacity="1" fill-rule="nonzero"></path><path fill="#d3d2d2" d="M 445.292969 370.742188 L 365.378906 370.742188 L 365.378906 361.085938 L 445.292969 361.085938 L 445.292969 370.742188 " fill-opacity="1" fill-rule="nonzero"></path><path fill="#d3d2d2" d="M 474.039062 405.855469 L 365.378906 405.855469 L 365.378906 396.179688 L 474.039062 396.179688 L 474.039062 405.855469 " fill-opacity="1" fill-rule="nonzero"></path><path fill="#d3d2d2" d="M 445.292969 419.597656 L 365.378906 419.597656 L 365.378906 409.921875 L 445.292969 409.921875 L 445.292969 419.597656 " fill-opacity="1" fill-rule="nonzero"></path><path fill="#ffffff" d="M 281.597656 411.132812 C 281.597656 414.597656 278.789062 417.402344 275.324219 417.402344 C 271.859375 417.402344 269.050781 414.597656 269.050781 411.132812 C 269.050781 407.667969 271.859375 404.863281 275.324219 404.863281 C 278.789062 404.863281 281.597656 407.667969 281.597656 411.132812 " fill-opacity="1" fill-rule="nonzero"></path><path fill="#ffffff" d="M 315.695312 411.132812 C 315.695312 414.597656 312.886719 417.402344 309.421875 417.402344 C 305.964844 417.402344 303.148438 414.597656 303.148438 411.132812 C 303.148438 407.667969 305.964844 404.863281 309.421875 404.863281 C 312.886719 404.863281 315.695312 407.667969 315.695312 411.132812 " fill-opacity="1" fill-rule="nonzero"></path><path fill="#ffffff" d="M 280.007812 370.152344 L 322.730469 370.152344 L 312.421875 394.390625 L 270.886719 393.21875 L 270.796875 396.242188 L 273.710938 395.4375 C 273.710938 395.425781 273.351562 394.128906 272.753906 391.980469 C 270.972656 385.535156 267.085938 371.449219 264.585938 362.050781 C 263.199219 356.789062 260.710938 353.386719 257.957031 351.464844 C 255.210938 349.535156 252.421875 349.148438 250.65625 349.148438 C 249.5 349.148438 248.753906 349.308594 248.578125 349.34375 C 246.953125 349.710938 245.929688 351.324219 246.296875 352.957031 C 246.664062 354.578125 248.28125 355.605469 249.910156 355.234375 L 249.5 353.4375 L 249.867188 355.246094 L 249.910156 355.234375 L 249.5 353.4375 L 249.867188 355.246094 L 249.902344 355.234375 C 250 355.226562 250.269531 355.191406 250.65625 355.191406 C 251.578125 355.191406 253.023438 355.386719 254.480469 356.410156 C 255.929688 357.4375 257.605469 359.367188 258.746094 363.601562 C 262.09375 376.203125 267.886719 397.042969 267.894531 397.050781 C 268.246094 398.320312 269.394531 399.214844 270.710938 399.257812 L 314.316406 400.488281 C 315.554688 400.515625 316.695312 399.785156 317.175781 398.644531 L 330.070312 368.320312 C 330.464844 367.390625 330.371094 366.3125 329.816406 365.46875 C 329.253906 364.628906 328.308594 364.121094 327.300781 364.121094 L 280.007812 364.121094 C 278.339844 364.121094 276.992188 365.46875 276.992188 367.136719 C 276.992188 368.800781 278.339844 370.160156 280.007812 370.160156 " fill-opacity="1" fill-rule="nonzero"></path><path fill="#2a1330" d="M 777.519531 522.140625 C 777.519531 524.121094 774.371094 527.464844 774.371094 527.464844 L 657.769531 525.71875 C 655.9375 525.71875 654.445312 524.121094 654.445312 522.140625 L 653.007812 454.964844 C 653.007812 454.964844 655.9375 450.835938 657.769531 450.835938 L 774.203125 450.835938 C 776.039062 450.835938 777.519531 452.4375 777.519531 454.402344 L 777.519531 522.140625 " fill-opacity="1" fill-rule="nonzero"></path><path fill="#3e1e4f" d="M 775.335938 524.9375 C 775.335938 526.910156 773.851562 528.523438 772.027344 528.523438 L 655.585938 528.523438 C 653.761719 528.523438 652.269531 526.910156 652.269531 524.9375 L 652.269531 457.210938 C 652.269531 455.238281 653.761719 453.632812 655.585938 453.632812 L 772.027344 453.632812 C 773.851562 453.632812 775.335938 455.238281 775.335938 457.210938 L 775.335938 524.9375 " fill-opacity="1" fill-rule="nonzero"></path><path fill="#d3d2d2" d="M 684.121094 494.386719 C 684.121094 496.21875 682.640625 497.699219 680.816406 497.699219 L 663.875 497.699219 C 662.042969 497.699219 660.550781 496.21875 660.550781 494.386719 L 660.550781 477.449219 C 660.550781 475.617188 662.042969 474.125 663.875 474.125 L 680.816406 474.125 C 682.640625 474.125 684.121094 475.617188 684.121094 477.449219 L 684.121094 494.386719 " fill-opacity="1" fill-rule="nonzero"></path><path fill="#e9e9e9" d="M 661.875 494.246094 C 672.710938 493.953125 679.964844 485.78125 683.921875 476.320312 C 683.457031 475.046875 682.246094 474.125 680.816406 474.125 L 663.875 474.125 C 662.042969 474.125 660.550781 475.617188 660.550781 477.449219 L 660.550781 494.386719 L 660.570312 494.515625 C 660.964844 494.359375 661.386719 494.261719 661.875 494.246094 " fill-opacity="1" fill-rule="nonzero"></path><path fill="#c4c3c3" d="M 665.113281 497.699219 L 666.042969 497.699219 L 666.042969 474.125 L 665.113281 474.125 Z M 665.113281 497.699219 " fill-opacity="1" fill-rule="nonzero"></path><path fill="#c4c3c3" d="M 678.140625 497.699219 L 679.070312 497.699219 L 679.070312 474.125 L 678.140625 474.125 Z M 678.140625 497.699219 " fill-opacity="1" fill-rule="nonzero"></path><path fill="#c4c3c3" d="M 678.605469 479.320312 L 684.121094 479.320312 L 684.121094 478.390625 L 678.605469 478.390625 Z M 678.605469 479.320312 " fill-opacity="1" fill-rule="nonzero"></path><path fill="#c4c3c3" d="M 678.605469 486.378906 L 684.121094 486.378906 L 684.121094 485.449219 L 678.605469 485.449219 Z M 678.605469 486.378906 " fill-opacity="1" fill-rule="nonzero"></path><path fill="#c4c3c3" d="M 678.605469 493.4375 L 684.121094 493.4375 L 684.121094 492.507812 L 678.605469 492.507812 Z M 678.605469 493.4375 " fill-opacity="1" fill-rule="nonzero"></path><path fill="#c4c3c3" d="M 660.550781 479.320312 L 665.578125 479.320312 L 665.578125 478.390625 L 660.550781 478.390625 Z M 660.550781 479.320312 " fill-opacity="1" fill-rule="nonzero"></path><path fill="#c4c3c3" d="M 660.550781 486.378906 L 665.578125 486.378906 L 665.578125 485.449219 L 660.550781 485.449219 Z M 660.550781 486.378906 " fill-opacity="1" fill-rule="nonzero"></path><path fill="#c4c3c3" d="M 660.550781 493.4375 L 665.578125 493.4375 L 665.578125 492.507812 L 660.550781 492.507812 Z M 660.550781 493.4375 " fill-opacity="1" fill-rule="nonzero"></path><path fill="#31173c" d="M 701.097656 470.769531 L 770.476562 470.769531 L 770.476562 462.207031 L 701.097656 462.207031 Z M 701.097656 470.769531 " fill-opacity="1" fill-rule="nonzero"></path><path fill="#31173c" d="M 701.097656 480.878906 L 770.476562 480.878906 L 770.476562 477.363281 L 701.097656 477.363281 Z M 701.097656 480.878906 " fill-opacity="1" fill-rule="nonzero"></path><path fill="#ffffff" d="M 672.238281 517.976562 L 660.550781 517.976562 L 660.550781 514.457031 L 672.238281 514.457031 L 672.238281 517.976562 " fill-opacity="1" fill-rule="nonzero"></path><path fill="#ffffff" d="M 710.507812 517.976562 L 698.832031 517.976562 L 698.832031 514.457031 L 710.507812 514.457031 L 710.507812 517.976562 " fill-opacity="1" fill-rule="nonzero"></path><path fill="#ffffff" d="M 695.570312 517.976562 L 675.527344 517.976562 L 675.527344 514.457031 L 695.570312 514.457031 L 695.570312 517.976562 " fill-opacity="1" fill-rule="nonzero"></path><path fill="#31173c" d="M 727.070312 487.675781 L 770.476562 487.675781 L 770.476562 484.160156 L 727.070312 484.160156 Z M 727.070312 487.675781 " fill-opacity="1" fill-rule="nonzero"></path><path fill="#d93b5a" d="M 738.964844 518.640625 C 738 519.605469 736.449219 519.605469 735.492188 518.640625 L 727.941406 511.089844 C 726.972656 510.136719 726.972656 508.582031 727.941406 507.617188 L 735.492188 500.066406 C 736.449219 499.113281 738 499.113281 738.964844 500.066406 L 746.511719 507.617188 C 747.476562 508.582031 747.476562 510.136719 746.511719 511.089844 L 738.964844 518.640625 " fill-opacity="1" fill-rule="nonzero"></path><path fill="#d82156" d="M 753.695312 518.640625 C 752.738281 519.605469 751.1875 519.605469 750.230469 518.640625 L 742.667969 511.089844 C 741.710938 510.136719 741.710938 508.582031 742.667969 507.617188 L 750.230469 500.066406 C 751.1875 499.113281 752.738281 499.113281 753.695312 500.066406 L 761.257812 507.617188 C 762.210938 508.582031 762.210938 510.136719 761.257812 511.089844 L 753.695312 518.640625 " fill-opacity="1" fill-rule="nonzero"></path><path fill="#251736" d="M 174.058594 314.429688 C 174.058594 330.121094 162.066406 342.828125 147.277344 342.828125 C 132.480469 342.828125 120.488281 330.121094 120.488281 314.429688 L 174.058594 314.429688 " fill-opacity="1" fill-rule="nonzero"></path><path fill="#cfcece" d="M 227.648438 314.429688 C 227.648438 330.121094 215.648438 342.828125 200.847656 342.828125 C 186.058594 342.828125 174.058594 330.121094 174.058594 314.429688 L 227.648438 314.429688 " fill-opacity="1" fill-rule="nonzero"></path><path fill="#33214e" d="M 281.226562 314.429688 C 281.226562 330.121094 269.226562 342.828125 254.4375 342.828125 C 239.640625 342.828125 227.648438 330.121094 227.648438 314.429688 L 281.226562 314.429688 " fill-opacity="1" fill-rule="nonzero"></path><path fill="#cfcece" d="M 334.808594 314.429688 C 334.808594 330.121094 322.808594 342.828125 308.019531 342.828125 C 293.21875 342.828125 281.226562 330.121094 281.226562 314.429688 L 334.808594 314.429688 " fill-opacity="1" fill-rule="nonzero"></path><path fill="#251736" d="M 388.386719 314.429688 C 388.386719 330.121094 376.386719 342.828125 361.589844 342.828125 C 346.800781 342.828125 334.808594 330.121094 334.808594 314.429688 L 388.386719 314.429688 " fill-opacity="1" fill-rule="nonzero"></path><path fill="#cfcece" d="M 441.960938 314.429688 C 441.960938 330.121094 429.96875 342.828125 415.179688 342.828125 C 400.378906 342.828125 388.386719 330.121094 388.386719 314.429688 L 441.960938 314.429688 " fill-opacity="1" fill-rule="nonzero"></path><path fill="#251736" d="M 495.539062 314.429688 C 495.539062 330.121094 483.546875 342.828125 468.75 342.828125 C 453.960938 342.828125 441.960938 330.121094 441.960938 314.429688 L 495.539062 314.429688 " fill-opacity="1" fill-rule="nonzero"></path><path fill="#cfcece" d="M 549.128906 314.429688 C 549.128906 330.121094 537.128906 342.828125 522.328125 342.828125 C 507.53125 342.828125 495.539062 330.121094 495.539062 314.429688 L 549.128906 314.429688 " fill-opacity="1" fill-rule="nonzero"></path><path fill="#251736" d="M 602.699219 314.429688 C 602.699219 330.121094 590.707031 342.828125 575.917969 342.828125 C 561.121094 342.828125 549.128906 330.121094 549.128906 314.429688 L 602.699219 314.429688 " fill-opacity="1" fill-rule="nonzero"></path><path fill="#33214e" d="M 519.515625 261.792969 L 213.359375 261.792969 L 120.488281 314.429688 L 602.058594 314.429688 L 519.515625 261.792969 " fill-opacity="1" fill-rule="nonzero"></path><path fill="#ffffff" d="M 487.792969 261.792969 L 249.148438 261.792969 L 174.058594 314.429688 L 549.46875 314.429688 L 487.792969 261.792969 " fill-opacity="1" fill-rule="nonzero"></path><path fill="#33214e" d="M 461.636719 261.792969 L 290.929688 261.792969 L 227.648438 314.429688 L 496.152344 314.429688 L 461.636719 261.792969 " fill-opacity="1" fill-rule="nonzero"></path><path fill="#ffffff" d="M 420.800781 261.792969 L 319.007812 261.792969 L 281.273438 314.429688 L 441.390625 314.429688 L 420.800781 261.792969 " fill-opacity="1" fill-rule="nonzero"></path><path fill="#33214e" d="M 381.492188 261.792969 L 347.449219 261.792969 L 334.824219 314.429688 L 388.386719 314.429688 L 381.492188 261.792969 " fill-opacity="1" fill-rule="nonzero"></path></svg>