<svg xmlns="http://www.w3.org/2000/svg" xmlns:xlink="http://www.w3.org/1999/xlink" width="242" viewBox="0 0 181.5 60" height="80" preserveAspectRatio="xMidYMid meet"><defs><g></g><clipPath id="dfff5b91ff"><path d="M 31.816406 0.0820312 L 83.566406 0.0820312 L 83.566406 59.917969 L 31.816406 59.917969 Z M 31.816406 0.0820312 " clip-rule="nonzero"></path></clipPath></defs><g clip-path="url(#dfff5b91ff)"><path fill="#5e17eb" d="M 58.765625 0.726562 L 70.621094 7.597656 L 82.476562 14.472656 L 83.566406 15.097656 L 83.566406 17.574219 L 82.476562 18.203125 L 69.546875 25.699219 L 57.691406 18.828125 L 48.007812 24.449219 L 48.007812 35.703125 L 57.691406 41.324219 L 69.546875 34.453125 L 73.855469 36.957031 C 77.09375 38.832031 80.328125 40.710938 83.566406 42.589844 L 83.566406 45.066406 L 82.476562 45.691406 L 70.621094 52.566406 L 58.765625 59.4375 L 57.691406 60.066406 L 56.617188 59.4375 L 53.378906 57.558594 L 59.308594 54.125 C 65.238281 50.6875 71.164062 47.25 77.082031 43.816406 L 69.535156 39.445312 L 50.144531 50.714844 L 48.527344 51.648438 L 45.832031 53.203125 L 44.757812 52.578125 L 32.902344 45.71875 L 31.816406 45.082031 L 31.816406 15.109375 L 32.902344 14.484375 L 44.757812 7.613281 L 45.832031 6.988281 L 46.90625 7.613281 L 69.535156 20.730469 L 77.082031 16.363281 L 68.460938 11.367188 L 62.054688 7.625 L 57.691406 5.09375 L 53.378906 2.589844 L 56.617188 0.726562 L 57.691406 0.101562 Z M 53.378906 43.839844 L 43.671875 38.207031 L 43.671875 21.984375 L 53.378906 16.351562 L 45.832031 11.980469 L 36.152344 17.601562 L 36.152344 42.589844 L 45.832031 48.210938 Z M 53.378906 43.839844 " fill-opacity="1" fill-rule="evenodd"></path></g><g fill="#000000" fill-opacity="1"><g transform="translate(83.790512, 28.100802)"><g><path d="M 2.015625 -1.125 C 0.953125 -2.070312 0.421875 -3.285156 0.421875 -4.765625 C 0.421875 -6.242188 0.972656 -7.457031 2.078125 -8.40625 C 3.191406 -9.351562 4.5625 -9.828125 6.1875 -9.828125 C 7.789062 -9.828125 9.140625 -9.347656 10.234375 -8.390625 C 11.328125 -7.441406 11.875 -6.234375 11.875 -4.765625 C 11.875 -3.296875 11.335938 -2.085938 10.265625 -1.140625 C 9.191406 -0.191406 7.832031 0.28125 6.1875 0.28125 C 4.46875 0.28125 3.078125 -0.1875 2.015625 -1.125 Z M 4.578125 -6.375 C 4.148438 -5.957031 3.9375 -5.421875 3.9375 -4.765625 C 3.9375 -4.109375 4.140625 -3.570312 4.546875 -3.15625 C 4.953125 -2.738281 5.492188 -2.53125 6.171875 -2.53125 C 6.816406 -2.53125 7.34375 -2.738281 7.75 -3.15625 C 8.164062 -3.582031 8.375 -4.117188 8.375 -4.765625 C 8.375 -5.421875 8.160156 -5.957031 7.734375 -6.375 C 7.304688 -6.800781 6.785156 -7.015625 6.171875 -7.015625 C 5.535156 -7.015625 5.003906 -6.800781 4.578125 -6.375 Z M 4.578125 -6.375 "></path></g></g></g><g fill="#000000" fill-opacity="1"><g transform="translate(95.168654, 28.100802)"><g><path d="M 1.765625 -1.171875 C 0.867188 -2.148438 0.421875 -3.347656 0.421875 -4.765625 C 0.421875 -6.179688 0.867188 -7.378906 1.765625 -8.359375 C 2.660156 -9.335938 3.796875 -9.828125 5.171875 -9.828125 C 6.441406 -9.828125 7.488281 -9.429688 8.3125 -8.640625 L 8.3125 -16.015625 L 11.609375 -16.015625 L 11.609375 0 L 8.34375 0 L 8.34375 -1.078125 L 8.3125 -1.078125 C 7.488281 -0.171875 6.441406 0.28125 5.171875 0.28125 C 3.796875 0.28125 2.660156 -0.203125 1.765625 -1.171875 Z M 4.578125 -6.375 C 4.148438 -5.957031 3.9375 -5.421875 3.9375 -4.765625 C 3.9375 -4.109375 4.140625 -3.570312 4.546875 -3.15625 C 4.953125 -2.738281 5.492188 -2.53125 6.171875 -2.53125 C 6.816406 -2.53125 7.34375 -2.738281 7.75 -3.15625 C 8.164062 -3.582031 8.375 -4.117188 8.375 -4.765625 C 8.375 -5.421875 8.160156 -5.957031 7.734375 -6.375 C 7.304688 -6.800781 6.785156 -7.015625 6.171875 -7.015625 C 5.535156 -7.015625 5.003906 -6.800781 4.578125 -6.375 Z M 4.578125 -6.375 "></path></g></g></g><g fill="#000000" fill-opacity="1"><g transform="translate(106.956489, 28.100802)"><g><path d="M 10.78125 -4.328125 L 3.859375 -4.328125 C 3.859375 -3.648438 4.070312 -3.148438 4.5 -2.828125 C 4.9375 -2.503906 5.410156 -2.34375 5.921875 -2.34375 C 6.453125 -2.34375 6.875 -2.414062 7.1875 -2.5625 C 7.5 -2.707031 7.851562 -2.988281 8.25 -3.40625 L 10.640625 -2.21875 C 9.640625 -0.550781 7.988281 0.28125 5.6875 0.28125 C 4.238281 0.28125 3 -0.210938 1.96875 -1.203125 C 0.9375 -2.191406 0.421875 -3.378906 0.421875 -4.765625 C 0.421875 -6.160156 0.9375 -7.351562 1.96875 -8.34375 C 3 -9.332031 4.238281 -9.828125 5.6875 -9.828125 C 7.195312 -9.828125 8.425781 -9.390625 9.375 -8.515625 C 10.320312 -7.640625 10.796875 -6.390625 10.796875 -4.765625 C 10.796875 -4.546875 10.789062 -4.398438 10.78125 -4.328125 Z M 3.953125 -6.140625 L 7.578125 -6.140625 C 7.503906 -6.640625 7.304688 -7.019531 6.984375 -7.28125 C 6.671875 -7.550781 6.269531 -7.6875 5.78125 -7.6875 C 5.226562 -7.6875 4.789062 -7.539062 4.46875 -7.25 C 4.144531 -6.96875 3.972656 -6.597656 3.953125 -6.140625 Z M 3.953125 -6.140625 "></path></g></g></g><g fill="#000000" fill-opacity="1"><g transform="translate(117.257784, 28.100802)"><g></g></g></g><g fill="#000000" fill-opacity="1"><g transform="translate(121.410528, 28.100802)"><g></g></g></g><g fill="#000000" fill-opacity="1"><g transform="translate(125.563273, 28.100802)"><g></g></g></g><g fill="#000000" fill-opacity="1"><g transform="translate(129.716017, 28.100802)"><g></g></g></g><g fill="#000000" fill-opacity="1"><g transform="translate(133.868762, 28.100802)"><g></g></g></g><g fill="#000000" fill-opacity="1"><g transform="translate(83.790512, 42.007624)"><g><path d="M 1.3125 0 L 1.3125 -11.234375 L 5.1875 -11.234375 L 5.1875 -9.609375 L 5.234375 -9.609375 C 5.265625 -9.671875 5.3125 -9.742188 5.375 -9.828125 C 5.4375 -9.921875 5.578125 -10.078125 5.796875 -10.296875 C 6.023438 -10.515625 6.257812 -10.710938 6.5 -10.890625 C 6.75 -11.066406 7.070312 -11.222656 7.46875 -11.359375 C 7.863281 -11.492188 8.265625 -11.5625 8.671875 -11.5625 C 9.097656 -11.5625 9.515625 -11.503906 9.921875 -11.390625 C 10.328125 -11.273438 10.628906 -11.160156 10.828125 -11.046875 L 11.125 -10.859375 L 9.5 -7.578125 C 9.019531 -7.984375 8.347656 -8.1875 7.484375 -8.1875 C 7.023438 -8.1875 6.625 -8.082031 6.28125 -7.875 C 5.945312 -7.675781 5.707031 -7.429688 5.5625 -7.140625 C 5.425781 -6.847656 5.328125 -6.597656 5.265625 -6.390625 C 5.210938 -6.191406 5.1875 -6.035156 5.1875 -5.921875 L 5.1875 0 Z M 1.3125 0 "></path></g></g></g><g fill="#000000" fill-opacity="1"><g transform="translate(93.601761, 42.007624)"><g><path d="M 2.078125 -1.390625 C 1.023438 -2.535156 0.5 -3.941406 0.5 -5.609375 C 0.5 -7.273438 1.023438 -8.679688 2.078125 -9.828125 C 3.128906 -10.984375 4.46875 -11.5625 6.09375 -11.5625 C 7.582031 -11.5625 8.804688 -11.097656 9.765625 -10.171875 L 9.765625 -11.234375 L 13.640625 -11.234375 L 13.640625 0 L 9.8125 0 L 9.8125 -1.265625 L 9.765625 -1.265625 C 8.804688 -0.203125 7.582031 0.328125 6.09375 0.328125 C 4.46875 0.328125 3.128906 -0.242188 2.078125 -1.390625 Z M 5.375 -7.515625 C 4.875 -7.015625 4.625 -6.378906 4.625 -5.609375 C 4.625 -4.835938 4.863281 -4.207031 5.34375 -3.71875 C 5.820312 -3.226562 6.457031 -2.984375 7.25 -2.984375 C 8.007812 -2.984375 8.632812 -3.226562 9.125 -3.71875 C 9.613281 -4.21875 9.859375 -4.847656 9.859375 -5.609375 C 9.859375 -6.378906 9.601562 -7.015625 9.09375 -7.515625 C 8.59375 -8.015625 7.976562 -8.265625 7.25 -8.265625 C 6.507812 -8.265625 5.882812 -8.015625 5.375 -7.515625 Z M 5.375 -7.515625 "></path></g></g></g><g fill="#000000" fill-opacity="1"><g transform="translate(107.464531, 42.007624)"><g><path d="M 2.078125 -1.390625 C 1.023438 -2.535156 0.5 -3.941406 0.5 -5.609375 C 0.5 -7.273438 1.023438 -8.679688 2.078125 -9.828125 C 3.128906 -10.984375 4.46875 -11.5625 6.09375 -11.5625 C 7.582031 -11.5625 8.804688 -11.097656 9.765625 -10.171875 L 9.765625 -11.234375 L 13.640625 -11.234375 L 13.640625 0 L 9.8125 0 L 9.8125 -1.265625 L 9.765625 -1.265625 C 8.804688 -0.203125 7.582031 0.328125 6.09375 0.328125 C 4.46875 0.328125 3.128906 -0.242188 2.078125 -1.390625 Z M 5.375 -7.515625 C 4.875 -7.015625 4.625 -6.378906 4.625 -5.609375 C 4.625 -4.835938 4.863281 -4.207031 5.34375 -3.71875 C 5.820312 -3.226562 6.457031 -2.984375 7.25 -2.984375 C 8.007812 -2.984375 8.632812 -3.226562 9.125 -3.71875 C 9.613281 -4.21875 9.859375 -4.847656 9.859375 -5.609375 C 9.859375 -6.378906 9.601562 -7.015625 9.09375 -7.515625 C 8.59375 -8.015625 7.976562 -8.265625 7.25 -8.265625 C 6.507812 -8.265625 5.882812 -8.015625 5.375 -7.515625 Z M 5.375 -7.515625 "></path></g></g></g><g fill="#000000" fill-opacity="1"><g transform="translate(121.327302, 42.007624)"><g><path d="M 1.96875 -11.234375 L 1.96875 -13.625 C 1.988281 -15.300781 2.382812 -16.644531 3.15625 -17.65625 C 3.925781 -18.664062 5 -19.171875 6.375 -19.171875 C 6.957031 -19.171875 7.515625 -19.082031 8.046875 -18.90625 C 8.578125 -18.738281 8.960938 -18.570312 9.203125 -18.40625 L 9.578125 -18.15625 L 8.21875 -15.421875 C 7.863281 -15.628906 7.472656 -15.734375 7.046875 -15.734375 C 6.566406 -15.734375 6.242188 -15.566406 6.078125 -15.234375 C 5.921875 -14.910156 5.84375 -14.335938 5.84375 -13.515625 L 5.84375 -11.234375 L 8.4375 -11.234375 L 8.4375 -8.28125 L 5.84375 -8.28125 L 5.84375 0 L 1.96875 0 L 1.96875 -8.28125 L 0.34375 -8.28125 L 0.34375 -11.234375 Z M 1.96875 -11.234375 "></path></g></g></g><g fill="#000000" fill-opacity="1"><g transform="translate(128.444837, 42.007624)"><g><path d="M 1.96875 -11.234375 L 1.96875 -15.421875 L 5.84375 -15.421875 L 5.84375 -11.234375 L 8.21875 -11.234375 L 8.21875 -8.28125 L 5.84375 -8.28125 L 5.84375 -4.703125 C 5.84375 -3.671875 6.132812 -3.15625 6.71875 -3.15625 C 6.863281 -3.15625 7.015625 -3.179688 7.171875 -3.234375 C 7.335938 -3.296875 7.46875 -3.359375 7.5625 -3.421875 L 7.6875 -3.5 L 8.65625 -0.375 C 7.820312 0.09375 6.875 0.328125 5.8125 0.328125 C 5.070312 0.328125 4.4375 0.203125 3.90625 -0.046875 C 3.382812 -0.304688 2.988281 -0.648438 2.71875 -1.078125 C 2.457031 -1.515625 2.265625 -1.96875 2.140625 -2.4375 C 2.023438 -2.914062 1.96875 -3.425781 1.96875 -3.96875 L 1.96875 -8.28125 L 0.34375 -8.28125 L 0.34375 -11.234375 Z M 1.96875 -11.234375 "></path></g></g></g></svg>