<svg xmlns="http://www.w3.org/2000/svg" xmlns:xlink="http://www.w3.org/1999/xlink" width="242" zoomAndPan="magnify" viewBox="0 0 181.5 60" height="80" preserveAspectRatio="xMidYMid meet" version="1.0"><defs><clipPath id="224c286bd6"><path d="M 68.722656 4.652344 L 112.972656 4.652344 L 112.972656 55.652344 L 68.722656 55.652344 Z M 68.722656 4.652344 " clip-rule="nonzero"/></clipPath></defs><g clip-path="url(#224c286bd6)"><path fill="#5e17eb" d="M 91.765625 5.203125 L 112.039062 16.882812 L 112.972656 17.417969 L 112.972656 19.523438 L 112.039062 20.054688 L 100.984375 26.425781 L 90.847656 20.585938 L 82.566406 25.363281 L 82.566406 34.929688 L 90.847656 39.707031 L 100.984375 33.863281 L 104.667969 35.992188 C 107.4375 37.589844 110.203125 39.1875 112.972656 40.78125 L 112.972656 42.886719 L 112.039062 43.417969 L 101.902344 49.261719 L 91.765625 55.101562 L 90.847656 55.632812 L 87.160156 53.507812 L 92.230469 50.585938 C 97.296875 47.664062 102.367188 44.742188 107.425781 41.824219 L 100.972656 38.109375 L 84.394531 47.6875 L 83.007812 48.480469 L 80.707031 49.804688 L 79.789062 49.273438 L 69.652344 43.441406 L 68.722656 42.898438 L 68.722656 17.429688 L 69.652344 16.894531 L 79.789062 11.054688 L 80.707031 10.523438 L 81.625 11.054688 L 100.972656 22.203125 L 107.425781 18.492188 L 100.054688 14.246094 L 94.578125 11.066406 L 90.847656 8.914062 L 87.160156 6.785156 L 89.925781 5.203125 L 90.847656 4.667969 Z M 87.160156 41.847656 L 78.859375 37.058594 L 78.859375 23.269531 L 87.160156 18.480469 L 80.707031 14.765625 L 72.429688 19.542969 L 72.429688 40.78125 L 80.707031 45.558594 Z M 87.160156 41.847656 " fill-opacity="1" fill-rule="evenodd"/></g></svg>