<svg xmlns="http://www.w3.org/2000/svg" xmlns:xlink="http://www.w3.org/1999/xlink" width="484" viewBox="0 0 363 119.999999" height="160" preserveAspectRatio="xMidYMid meet"><defs><g></g><clipPath id="9e3088ab7c"><path d="M 12 0 L 116.25 0 L 116.25 120 L 12 120 Z M 12 0 " clip-rule="nonzero"></path></clipPath></defs><g clip-path="url(#9e3088ab7c)"><path fill="#5e17eb" d="M 66.289062 1.289062 L 90.175781 15.035156 L 114.058594 28.777344 L 116.25 30.03125 L 116.25 34.984375 L 114.058594 36.238281 L 88.011719 51.234375 L 64.125 37.488281 L 44.621094 48.730469 L 44.621094 71.242188 L 64.125 82.484375 L 88.011719 68.738281 L 96.691406 73.746094 C 103.210938 77.5 109.730469 81.257812 116.25 85.015625 L 116.25 89.96875 L 114.058594 91.222656 L 90.175781 104.964844 L 66.289062 118.710938 L 64.125 119.964844 L 61.960938 118.710938 L 55.441406 114.957031 L 67.382812 108.082031 C 79.328125 101.210938 91.269531 94.335938 103.183594 87.464844 L 87.984375 78.726562 L 48.921875 101.265625 L 45.664062 103.128906 L 40.238281 106.246094 L 38.074219 104.992188 L 14.191406 91.273438 L 12 89.996094 L 12 30.058594 L 14.191406 28.804688 L 38.074219 15.058594 L 40.238281 13.808594 L 42.402344 15.058594 L 87.984375 41.300781 L 103.183594 32.5625 L 85.820312 22.570312 L 72.914062 15.085938 L 64.125 10.023438 L 55.441406 5.015625 L 61.960938 1.289062 L 64.125 0.0351562 Z M 55.441406 87.519531 L 35.886719 76.25 L 35.886719 43.804688 L 55.441406 32.535156 L 40.238281 23.796875 L 20.738281 35.039062 L 20.738281 85.015625 L 40.238281 96.253906 Z M 55.441406 87.519531 " fill-opacity="1" fill-rule="evenodd"></path></g><g fill="#ffffff" fill-opacity="1"><g transform="translate(118.947593, 53.001908)"><g><path d="M 4.25 -2.390625 C 2.019531 -4.378906 0.90625 -6.929688 0.90625 -10.046875 C 0.90625 -13.160156 2.066406 -15.71875 4.390625 -17.71875 C 6.722656 -19.71875 9.601562 -20.71875 13.03125 -20.71875 C 16.40625 -20.71875 19.25 -19.707031 21.5625 -17.6875 C 23.875 -15.675781 25.03125 -13.128906 25.03125 -10.046875 C 25.03125 -6.960938 23.898438 -4.414062 21.640625 -2.40625 C 19.378906 -0.40625 16.507812 0.59375 13.03125 0.59375 C 9.414062 0.59375 6.488281 -0.398438 4.25 -2.390625 Z M 9.625 -13.453125 C 8.726562 -12.566406 8.28125 -11.429688 8.28125 -10.046875 C 8.28125 -8.660156 8.710938 -7.523438 9.578125 -6.640625 C 10.441406 -5.765625 11.578125 -5.328125 12.984375 -5.328125 C 14.347656 -5.328125 15.46875 -5.769531 16.34375 -6.65625 C 17.21875 -7.550781 17.65625 -8.679688 17.65625 -10.046875 C 17.65625 -11.429688 17.203125 -12.566406 16.296875 -13.453125 C 15.398438 -14.347656 14.296875 -14.796875 12.984375 -14.796875 C 11.648438 -14.796875 10.53125 -14.347656 9.625 -13.453125 Z M 9.625 -13.453125 "></path></g></g></g><g fill="#ffffff" fill-opacity="1"><g transform="translate(142.919361, 53.001908)"><g><path d="M 3.71875 -2.484375 C 1.84375 -4.546875 0.90625 -7.066406 0.90625 -10.046875 C 0.90625 -13.023438 1.84375 -15.546875 3.71875 -17.609375 C 5.601562 -19.679688 8 -20.71875 10.90625 -20.71875 C 13.570312 -20.71875 15.769531 -19.878906 17.5 -18.203125 L 17.5 -33.734375 L 24.4375 -33.734375 L 24.4375 0 L 17.578125 0 L 17.578125 -2.28125 L 17.5 -2.28125 C 15.769531 -0.363281 13.570312 0.59375 10.90625 0.59375 C 8 0.59375 5.601562 -0.429688 3.71875 -2.484375 Z M 9.625 -13.453125 C 8.726562 -12.566406 8.28125 -11.429688 8.28125 -10.046875 C 8.28125 -8.660156 8.710938 -7.523438 9.578125 -6.640625 C 10.441406 -5.765625 11.578125 -5.328125 12.984375 -5.328125 C 14.347656 -5.328125 15.46875 -5.769531 16.34375 -6.65625 C 17.21875 -7.550781 17.65625 -8.679688 17.65625 -10.046875 C 17.65625 -11.429688 17.203125 -12.566406 16.296875 -13.453125 C 15.398438 -14.347656 14.296875 -14.796875 12.984375 -14.796875 C 11.648438 -14.796875 10.53125 -14.347656 9.625 -13.453125 Z M 9.625 -13.453125 "></path></g></g></g><g fill="#ffffff" fill-opacity="1"><g transform="translate(167.75428, 53.001908)"><g><path d="M 22.71875 -9.109375 L 8.125 -9.109375 C 8.125 -7.691406 8.582031 -6.640625 9.5 -5.953125 C 10.414062 -5.273438 11.40625 -4.9375 12.46875 -4.9375 C 13.59375 -4.9375 14.484375 -5.085938 15.140625 -5.390625 C 15.796875 -5.691406 16.539062 -6.289062 17.375 -7.1875 L 22.40625 -4.671875 C 20.3125 -1.160156 16.832031 0.59375 11.96875 0.59375 C 8.9375 0.59375 6.332031 -0.445312 4.15625 -2.53125 C 1.988281 -4.613281 0.90625 -7.117188 0.90625 -10.046875 C 0.90625 -12.972656 1.988281 -15.484375 4.15625 -17.578125 C 6.332031 -19.671875 8.9375 -20.71875 11.96875 -20.71875 C 15.15625 -20.71875 17.75 -19.796875 19.75 -17.953125 C 21.75 -16.109375 22.75 -13.472656 22.75 -10.046875 C 22.75 -9.578125 22.738281 -9.265625 22.71875 -9.109375 Z M 8.3125 -12.953125 L 15.96875 -12.953125 C 15.8125 -13.992188 15.398438 -14.796875 14.734375 -15.359375 C 14.066406 -15.921875 13.207031 -16.203125 12.15625 -16.203125 C 11.007812 -16.203125 10.09375 -15.898438 9.40625 -15.296875 C 8.726562 -14.703125 8.363281 -13.921875 8.3125 -12.953125 Z M 8.3125 -12.953125 "></path></g></g></g><g fill="#ffffff" fill-opacity="1"><g transform="translate(118.947593, 81.363547)"><g><path d="M 2.8125 0 L 2.8125 -24 L 11.09375 -24 L 11.09375 -20.546875 L 11.1875 -20.546875 C 11.25 -20.671875 11.347656 -20.828125 11.484375 -21.015625 C 11.628906 -21.203125 11.9375 -21.53125 12.40625 -22 C 12.875 -22.46875 13.367188 -22.882812 13.890625 -23.25 C 14.421875 -23.625 15.109375 -23.957031 15.953125 -24.25 C 16.796875 -24.550781 17.65625 -24.703125 18.53125 -24.703125 C 19.4375 -24.703125 20.328125 -24.578125 21.203125 -24.328125 C 22.078125 -24.078125 22.71875 -23.828125 23.125 -23.578125 L 23.765625 -23.21875 L 20.3125 -16.1875 C 19.28125 -17.0625 17.84375 -17.5 16 -17.5 C 15 -17.5 14.140625 -17.28125 13.421875 -16.84375 C 12.710938 -16.40625 12.207031 -15.875 11.90625 -15.25 C 11.613281 -14.625 11.40625 -14.09375 11.28125 -13.65625 C 11.15625 -13.226562 11.09375 -12.890625 11.09375 -12.640625 L 11.09375 0 Z M 2.8125 0 "></path></g></g></g><g fill="#ffffff" fill-opacity="1"><g transform="translate(139.910461, 81.363547)"><g><path d="M 4.4375 -2.96875 C 2.195312 -5.414062 1.078125 -8.414062 1.078125 -11.96875 C 1.078125 -15.53125 2.195312 -18.539062 4.4375 -21 C 6.6875 -23.46875 9.546875 -24.703125 13.015625 -24.703125 C 16.191406 -24.703125 18.8125 -23.707031 20.875 -21.71875 L 20.875 -24 L 29.15625 -24 L 29.15625 0 L 20.96875 0 L 20.96875 -2.71875 L 20.875 -2.71875 C 18.8125 -0.4375 16.191406 0.703125 13.015625 0.703125 C 9.546875 0.703125 6.6875 -0.519531 4.4375 -2.96875 Z M 11.484375 -16.046875 C 10.410156 -14.984375 9.875 -13.625 9.875 -11.96875 C 9.875 -10.320312 10.390625 -8.972656 11.421875 -7.921875 C 12.453125 -6.878906 13.804688 -6.359375 15.484375 -6.359375 C 17.109375 -6.359375 18.441406 -6.890625 19.484375 -7.953125 C 20.535156 -9.015625 21.0625 -10.359375 21.0625 -11.984375 C 21.0625 -13.628906 20.519531 -14.984375 19.4375 -16.046875 C 18.363281 -17.109375 17.046875 -17.640625 15.484375 -17.640625 C 13.898438 -17.640625 12.566406 -17.109375 11.484375 -16.046875 Z M 11.484375 -16.046875 "></path></g></g></g><g fill="#ffffff" fill-opacity="1"><g transform="translate(169.530023, 81.363547)"><g><path d="M 4.4375 -2.96875 C 2.195312 -5.414062 1.078125 -8.414062 1.078125 -11.96875 C 1.078125 -15.53125 2.195312 -18.539062 4.4375 -21 C 6.6875 -23.46875 9.546875 -24.703125 13.015625 -24.703125 C 16.191406 -24.703125 18.8125 -23.707031 20.875 -21.71875 L 20.875 -24 L 29.15625 -24 L 29.15625 0 L 20.96875 0 L 20.96875 -2.71875 L 20.875 -2.71875 C 18.8125 -0.4375 16.191406 0.703125 13.015625 0.703125 C 9.546875 0.703125 6.6875 -0.519531 4.4375 -2.96875 Z M 11.484375 -16.046875 C 10.410156 -14.984375 9.875 -13.625 9.875 -11.96875 C 9.875 -10.320312 10.390625 -8.972656 11.421875 -7.921875 C 12.453125 -6.878906 13.804688 -6.359375 15.484375 -6.359375 C 17.109375 -6.359375 18.441406 -6.890625 19.484375 -7.953125 C 20.535156 -9.015625 21.0625 -10.359375 21.0625 -11.984375 C 21.0625 -13.628906 20.519531 -14.984375 19.4375 -16.046875 C 18.363281 -17.109375 17.046875 -17.640625 15.484375 -17.640625 C 13.898438 -17.640625 12.566406 -17.109375 11.484375 -16.046875 Z M 11.484375 -16.046875 "></path></g></g></g><g fill="#ffffff" fill-opacity="1"><g transform="translate(199.149591, 81.363547)"><g><path d="M 4.21875 -24 L 4.21875 -29.109375 C 4.25 -32.691406 5.085938 -35.5625 6.734375 -37.71875 C 8.390625 -39.875 10.6875 -40.953125 13.625 -40.953125 C 14.863281 -40.953125 16.050781 -40.769531 17.1875 -40.40625 C 18.332031 -40.050781 19.15625 -39.6875 19.65625 -39.3125 L 20.453125 -38.796875 L 17.546875 -32.9375 C 16.796875 -33.375 15.96875 -33.59375 15.0625 -33.59375 C 14.039062 -33.59375 13.359375 -33.242188 13.015625 -32.546875 C 12.671875 -31.847656 12.5 -30.625 12.5 -28.875 L 12.5 -24 L 18.015625 -24 L 18.015625 -17.6875 L 12.5 -17.6875 L 12.5 0 L 4.21875 0 L 4.21875 -17.6875 L 0.75 -17.6875 L 0.75 -24 Z M 4.21875 -24 "></path></g></g></g><g fill="#ffffff" fill-opacity="1"><g transform="translate(214.35694, 81.363547)"><g><path d="M 4.21875 -24 L 4.21875 -32.9375 L 12.5 -32.9375 L 12.5 -24 L 17.546875 -24 L 17.546875 -17.6875 L 12.5 -17.6875 L 12.5 -10.0625 C 12.5 -7.84375 13.117188 -6.734375 14.359375 -6.734375 C 14.671875 -6.734375 15 -6.796875 15.34375 -6.921875 C 15.6875 -7.046875 15.953125 -7.171875 16.140625 -7.296875 L 16.421875 -7.484375 L 18.484375 -0.796875 C 16.703125 0.203125 14.675781 0.703125 12.40625 0.703125 C 10.84375 0.703125 9.5 0.429688 8.375 -0.109375 C 7.25 -0.660156 6.394531 -1.394531 5.8125 -2.3125 C 5.238281 -3.238281 4.828125 -4.207031 4.578125 -5.21875 C 4.335938 -6.226562 4.21875 -7.3125 4.21875 -8.46875 L 4.21875 -17.6875 L 0.75 -17.6875 L 0.75 -24 Z M 4.21875 -24 "></path></g></g></g></svg>