<svg xmlns="http://www.w3.org/2000/svg" xmlns:xlink="http://www.w3.org/1999/xlink" width="500" viewBox="0 0 375 374.999991" height="500" preserveAspectRatio="xMidYMid meet"><defs><clipPath id="ea31225c90"><path d="M 25.078125 0 L 349.828125 0 L 349.828125 375 L 25.078125 375 Z M 25.078125 0 " clip-rule="nonzero"></path></clipPath></defs><g clip-path="url(#ea31225c90)"><path fill="#5e17eb" d="M 194.195312 4.015625 L 268.597656 46.972656 L 343.003906 89.929688 L 349.828125 93.84375 L 349.828125 109.328125 L 343.003906 113.242188 L 261.859375 160.109375 L 187.453125 117.152344 L 126.699219 152.285156 L 126.699219 222.632812 L 187.453125 257.761719 L 261.859375 214.804688 L 288.90625 230.457031 C 309.214844 242.195312 329.519531 253.933594 349.828125 265.671875 L 349.828125 281.15625 L 343.003906 285.070312 L 268.597656 328.027344 L 194.195312 370.984375 L 187.453125 374.898438 L 180.710938 370.984375 L 160.40625 359.246094 L 197.605469 337.765625 C 234.808594 316.289062 272.011719 294.808594 309.128906 273.332031 L 261.773438 246.023438 L 140.097656 316.457031 L 129.945312 322.28125 L 113.046875 332.023438 L 106.308594 328.109375 L 31.902344 285.234375 L 25.078125 281.238281 L 25.078125 93.925781 L 31.902344 90.011719 L 106.308594 47.054688 L 113.046875 43.144531 L 119.789062 47.054688 L 261.773438 129.058594 L 309.128906 101.75 L 255.03125 70.53125 L 214.835938 47.140625 L 187.453125 31.320312 L 160.40625 15.671875 L 180.710938 4.015625 L 187.453125 0.101562 Z M 160.40625 273.496094 L 99.484375 238.28125 L 99.484375 136.882812 L 160.40625 101.667969 L 113.046875 74.363281 L 52.292969 109.496094 L 52.292969 265.671875 L 113.046875 300.804688 Z M 160.40625 273.496094 " fill-opacity="1" fill-rule="evenodd"></path></g></svg>