<svg xmlns="http://www.w3.org/2000/svg" viewBox="0 0 24 24"><defs><style>.cls-1{fill:none;stroke:#000;stroke-linecap:round;stroke-linejoin:round;stroke-width:0.8px;}</style></defs><g id="Layer_1" data-name="Layer 1"><path d="M23,8.08a.2.2,0,0,1,.2.2v4.26a.2.2,0,0,1-.2.2H1a.2.2,0,0,1-.2-.2V8.28a.2.2,0,0,1,.2-.2H23m0-.8H1a1,1,0,0,0-1,1v4.26a1,1,0,0,0,1,1H23a1,1,0,0,0,1-1V8.28a1,1,0,0,0-1-1Z"/><polyline class="cls-1" points="0.52 5.78 0.52 4.22 18.52 4.22 18.52 5.78"/><polyline class="cls-1" points="0.52 2.06 0.52 0.5 12.52 0.5 12.52 2.06"/><line class="cls-1" x1="3.25" y1="16.5" x2="12.72" y2="16.5"/><line class="cls-1" x1="3.25" y1="10.5" x2="11.72" y2="10.5"/><line class="cls-1" x1="17.72" y1="10.5" x2="20.72" y2="10.5"/><line class="cls-1" x1="3.25" y1="20.05" x2="17.72" y2="20.05"/><line class="cls-1" x1="3.25" y1="23.6" x2="13.72" y2="23.6"/></g></svg>