<svg xmlns="http://www.w3.org/2000/svg" viewBox="0 0 24 24"><g id="Layer_1" data-name="Layer 1"><path d="M23,.8a.2.2,0,0,1,.2.2V23a.2.2,0,0,1-.2.2H1A.2.2,0,0,1,.8,23V1A.2.2,0,0,1,1,.8H23M23,0H1A1,1,0,0,0,0,1V23a1,1,0,0,0,1,1H23a1,1,0,0,0,1-1V1a1,1,0,0,0-1-1Z"/><rect x="2.5" y="2.19" width="6.87" height="0.8" rx="0.4"/><rect x="2.5" y="5.87" width="7.28" height="0.8" rx="0.4"/><rect x="2.5" y="9.54" width="4.28" height="0.8" rx="0.4"/><rect x="2.5" y="13.22" width="6.28" height="0.8" rx="0.4"/><path d="M20.5,16.8a.2.2,0,0,1,.2.2v3.94a.2.2,0,0,1-.2.2H3.5a.2.2,0,0,1-.2-.2V17a.2.2,0,0,1,.2-.2h17m0-.8H3.5a1,1,0,0,0-1,1v3.94a1,1,0,0,0,1,1h17a1,1,0,0,0,1-1V17a1,1,0,0,0-1-1Z"/><path d="M20.5,2.92a.2.2,0,0,1,.2.2v10a.2.2,0,0,1-.2.2H12.78a.2.2,0,0,1-.2-.2v-10a.2.2,0,0,1,.2-.2H20.5m0-.8H12.78a1,1,0,0,0-1,1v10a1,1,0,0,0,1,1H20.5a1,1,0,0,0,1-1v-10a1,1,0,0,0-1-1Z"/><path d="M15.76,8.89H14.51l-.23.57h-.64l1.2-2.69h.61l1.2,2.69H16Zm-.19-.48-.43-1-.43,1Z"/><path d="M16.93,6.77h1.23a1.71,1.71,0,0,1,.77.17,1.25,1.25,0,0,1,.52.47,1.28,1.28,0,0,1,.19.71,1.3,1.3,0,0,1-.19.71,1.32,1.32,0,0,1-.52.47,1.71,1.71,0,0,1-.77.16H16.93ZM18.13,9a.91.91,0,0,0,.64-.22A.81.81,0,0,0,19,8.12a.79.79,0,0,0-.24-.61.91.91,0,0,0-.64-.23h-.57V9Z"/></g></svg>