<svg xmlns="http://www.w3.org/2000/svg" viewBox="0 0 24 24"><defs><style>.cls-1{fill-rule:evenodd;}</style></defs><g id="Layer_1" data-name="Layer 1"><path class="cls-1" d="M13.54,10.29a.45.45,0,0,0-.24.25c0,.05,0,1.2,0,3.76,0,3.61,0,3.69,0,3.77a.41.41,0,0,0,.21.2.47.47,0,0,0,.31,0s.36-.3.74-.63l.7-.61s.26.6.57,1.34.58,1.36.61,1.39a.31.31,0,0,0,.22.11,13.09,13.09,0,0,0,1.44-.63.3.3,0,0,0,.1-.22s-.22-.58-.55-1.37l-.55-1.3h.95c1.06,0,1,0,1.13-.14a.39.39,0,0,0,0-.47S18,14.46,16.53,13c-2.06-2.09-2.65-2.68-2.71-2.7A.38.38,0,0,0,13.54,10.29Zm3.57,4.14,1.29,1.31h-.92c-1,0-1,0-1.07.13a.19.19,0,0,0,0,.17,8,8,0,0,0,.57,1.44l.57,1.37a3.52,3.52,0,0,1-.69.3l-.59-1.4c-.32-.75-.59-1.39-.61-1.41a.31.31,0,0,0-.38-.08s-1.07.92-1.32,1.15l0,0v-6.3l1,1C15.38,12.69,16.4,13.72,17.11,14.43Z"/><path class="cls-1" d="M2.67,4.12H21.33A2.45,2.45,0,0,1,24,6.25v6.37a2.45,2.45,0,0,1-2.67,2.12H19.7V12.62h1.63c.8,0,1.34-.42,1.34-1.06V6.25c0-.64-.54-1.06-1.34-1.06H2.67c-.8,0-1.34.42-1.34,1.06v5.31c0,.64.54,1.06,1.34,1.06h9.38v2.12H2.67A2.45,2.45,0,0,1,0,12.62V6.25A2.45,2.45,0,0,1,2.67,4.12Z"/></g></svg>