<svg xmlns="http://www.w3.org/2000/svg" viewBox="0 0 24 24"><defs><style>.cls-1{fill:none;stroke:#000;stroke-linecap:round;stroke-linejoin:round;stroke-width:0.8px;}</style></defs><g id="Layer_1" data-name="Layer 1"><path d="M5.11,9.91a.2.2,0,0,1,.2.2v4a.2.2,0,0,1-.2.2h-4a.2.2,0,0,1-.2-.2v-4a.2.2,0,0,1,.2-.2h4m0-.8h-4a1,1,0,0,0-1,1v4a1,1,0,0,0,1,1h4a1,1,0,0,0,1-1v-4a1,1,0,0,0-1-1Z"/><path d="M23.11,18.8a.2.2,0,0,1,.2.2v4a.2.2,0,0,1-.2.2h-4a.2.2,0,0,1-.2-.2V19a.2.2,0,0,1,.2-.2h4m0-.8h-4a1,1,0,0,0-1,1v4a1,1,0,0,0,1,1h4a1,1,0,0,0,1-1V19a1,1,0,0,0-1-1Z"/><path d="M23.11,9.8a.2.2,0,0,1,.2.2v4a.2.2,0,0,1-.2.2h-4a.2.2,0,0,1-.2-.2V10a.2.2,0,0,1,.2-.2h4m0-.8h-4a1,1,0,0,0-1,1v4a1,1,0,0,0,1,1h4a1,1,0,0,0,1-1V10a1,1,0,0,0-1-1Z"/><path d="M23.11.8a.2.2,0,0,1,.2.2V5a.2.2,0,0,1-.2.2h-4a.2.2,0,0,1-.2-.2V1a.2.2,0,0,1,.2-.2h4m0-.8h-4a1,1,0,0,0-1,1V5a1,1,0,0,0,1,1h4a1,1,0,0,0,1-1V1a1,1,0,0,0-1-1Z"/><polyline class="cls-1" points="16.36 21.11 11.86 21.11 11.86 3.11 16.36 3.11"/><rect x="7.11" y="11.71" width="10" height="0.8" rx="0.4"/></g></svg>