<svg xmlns="http://www.w3.org/2000/svg" xmlns:xlink="http://www.w3.org/1999/xlink" viewBox="0 0 24 24"><defs><style>.cls-1,.cls-3{fill:none;}.cls-2{clip-path:url(#clip-path);}.cls-3{stroke:#000;stroke-linecap:round;stroke-linejoin:round;stroke-width:0.8px;}</style><clipPath id="clip-path"><rect class="cls-1" width="24" height="24"/></clipPath></defs><g id="Layer_1" data-name="Layer 1"><path d="M18,5.38a.2.2,0,0,1,.2.2V17.42a.2.2,0,0,1-.2.2H6a.2.2,0,0,1-.2-.2V5.58a.2.2,0,0,1,.2-.2H18m0-.8H6a1,1,0,0,0-1,1V17.42a1,1,0,0,0,1,1H18a1,1,0,0,0,1-1V5.58a1,1,0,0,0-1-1Z"/><path d="M7.5,10.42H8v1.75H9.08v.41H7.5Z"/><path d="M9.76,12.47a1.08,1.08,0,0,1-.42-.4,1.1,1.1,0,0,1,0-1.14,1.08,1.08,0,0,1,.42-.4,1.36,1.36,0,0,1,1.2,0,1.08,1.08,0,0,1,.42.4,1.1,1.1,0,0,1,0,1.14,1.08,1.08,0,0,1-.42.4,1.36,1.36,0,0,1-1.2,0Zm.94-.37a.64.64,0,0,0,.25-.24.85.85,0,0,0,0-.72A.69.69,0,0,0,10,10.9a.56.56,0,0,0-.24.24.76.76,0,0,0,0,.72.56.56,0,0,0,.24.24.69.69,0,0,0,.68,0Z"/><path d="M13.37,11.47h.45v.87a1.31,1.31,0,0,1-.41.2,1.43,1.43,0,0,1-.46.07,1.33,1.33,0,0,1-.6-.14,1.08,1.08,0,0,1-.42-.4,1.16,1.16,0,0,1,0-1.14,1.08,1.08,0,0,1,.42-.4,1.34,1.34,0,0,1,.61-.14,1.36,1.36,0,0,1,.51.09,1,1,0,0,1,.39.28l-.32.29a.77.77,0,0,0-.92-.15.64.64,0,0,0-.25.24.69.69,0,0,0-.09.36.74.74,0,0,0,.09.36.64.64,0,0,0,.25.24.69.69,0,0,0,.36.09.86.86,0,0,0,.39-.09Z"/><path d="M14.72,12.47a1.08,1.08,0,0,1-.42-.4,1.16,1.16,0,0,1,0-1.14,1.08,1.08,0,0,1,.42-.4,1.38,1.38,0,0,1,1.21,0,1.24,1.24,0,0,1,.42.4,1.16,1.16,0,0,1,0,1.14,1.24,1.24,0,0,1-.42.4,1.38,1.38,0,0,1-1.21,0Zm.95-.37a.69.69,0,0,0,.24-.24.77.77,0,0,0,0-.72.69.69,0,0,0-.24-.24.7.7,0,0,0-.35-.09.67.67,0,0,0-.34.09.69.69,0,0,0-.24.24.76.76,0,0,0,0,.72.69.69,0,0,0,.24.24.67.67,0,0,0,.34.09A.7.7,0,0,0,15.67,12.1Z"/><g class="cls-2"><path d="M34,2.76a.2.2,0,0,1,.2.2V20a.2.2,0,0,1-.2.2H22a.2.2,0,0,1-.2-.2V3a.2.2,0,0,1,.2-.2H34M34,2H22a1,1,0,0,0-1,1V20a1,1,0,0,0,1,1H34a1,1,0,0,0,1-1V3a1,1,0,0,0-1-1Z"/><path d="M2,2.76a.2.2,0,0,1,.2.2V20a.2.2,0,0,1-.2.2H-10a.2.2,0,0,1-.2-.2V3a.2.2,0,0,1,.2-.2H2M2,2H-10a1,1,0,0,0-1,1V20a1,1,0,0,0,1,1H2a1,1,0,0,0,1-1V3A1,1,0,0,0,2,2Z"/></g><line class="cls-3" x1="9.5" y1="20.5" x2="11.5" y2="20.5"/><line class="cls-3" x1="13.5" y1="20.5" x2="14.5" y2="20.5"/></g></svg>