<svg xmlns="http://www.w3.org/2000/svg" viewBox="0 0 24 24"><defs><style>.cls-1{fill-rule:evenodd;}</style></defs><g id="Layer_2" data-name="Layer 2"><g id="jkit-icon"><path class="cls-1" d="M15.48,16.19a.38.38,0,0,0-.2.21s0,1,0,3.06c0,2.93,0,3,0,3.07a.4.4,0,0,0,.17.17.53.53,0,0,0,.25,0s.3-.24.61-.51l.56-.5s.22.49.47,1.09.48,1.11.5,1.13A.21.21,0,0,0,18,24a10.91,10.91,0,0,0,1.17-.51.22.22,0,0,0,.08-.18s-.17-.47-.45-1.11l-.44-1.07h.77c.86,0,.82,0,.92-.12a.31.31,0,0,0,0-.38s-1-1-2.18-2.23c-1.68-1.71-2.16-2.18-2.21-2.2A.36.36,0,0,0,15.48,16.19Zm2.9,3.38,1.05,1.06h-.74c-.82,0-.8,0-.88.11a.25.25,0,0,0,0,.13,6.41,6.41,0,0,0,.46,1.18c.26.6.47,1.1.47,1.11a2.1,2.1,0,0,1-.56.24s-.22-.52-.48-1.13-.48-1.13-.5-1.16a.27.27,0,0,0-.31-.06s-.87.75-1.07.94l0,0V16.9l.79.8C17,18.14,17.81,19,18.38,19.57Z"/><path class="cls-1" d="M6.62,11.17H21.83A2,2,0,0,1,24,12.9v5.19a2,2,0,0,1-2.17,1.73H20.5V18.09h1.33c.65,0,1.08-.35,1.08-.87V12.9c0-.52-.43-.87-1.08-.87H6.62c-.65,0-1.09.35-1.09.87v4.32c0,.52.44.87,1.09.87h7.64v1.73H6.62a2,2,0,0,1-2.17-1.73V12.9A2,2,0,0,1,6.62,11.17Z"/><path d="M17.38,0H2.17A2,2,0,0,0,0,1.73V6.92A2,2,0,0,0,2.17,8.65H17.38a2,2,0,0,0,2.17-1.73V1.73A2,2,0,0,0,17.38,0Zm1.09,6.06c0,.52-.44.86-1.09.86H2.17c-.65,0-1.08-.34-1.08-.86V1.73c0-.52.43-.86,1.08-.86H17.38c.65,0,1.09.34,1.09.86Z"/></g></g></svg>