<svg xmlns="http://www.w3.org/2000/svg" viewBox="0 0 24 24"><defs><style>.cls-1{fill:none;stroke:#000;stroke-linecap:round;stroke-linejoin:round;stroke-width:0.7px;}</style></defs><g id="Layer_1" data-name="Layer 1"><rect x="7.89" y="1.92" width="16.11" height="0.8" rx="0.4"/><rect x="7.89" y="3.92" width="13.09" height="0.8" rx="0.4"/><rect x="7.89" y="19.28" width="16.11" height="0.8" rx="0.4"/><rect x="7.89" y="21.28" width="13.09" height="0.8" rx="0.4"/><path d="M3.53,18.07h0m-.21.21,2.4,2.4-2.4,2.4-2.4-2.4,2.4-2.4m0-.92a.47.47,0,0,0-.35.15L.15,20.33a.48.48,0,0,0,0,.7L3,23.85a.48.48,0,0,0,.7,0L6.49,21a.48.48,0,0,0,0-.7L3.67,17.51a.47.47,0,0,0-.35-.15Z"/><rect x="7.89" y="10.6" width="16.11" height="0.8" rx="0.4"/><rect x="7.89" y="12.6" width="13.09" height="0.8" rx="0.4"/><path d="M3.53,9.39h0m-.21.21L5.72,12l-2.4,2.4L.92,12l2.4-2.4m0-.92A.47.47,0,0,0,3,8.83L.15,11.65a.48.48,0,0,0,0,.7L3,15.17a.48.48,0,0,0,.7,0l2.82-2.82a.48.48,0,0,0,0-.7L3.67,8.83a.47.47,0,0,0-.35-.15Z"/><path d="M3.53.71h0M3.32.92l2.4,2.4-2.4,2.4L.92,3.32,3.32.92m0-.92A.47.47,0,0,0,3,.15L.15,3a.48.48,0,0,0,0,.7L3,6.49a.48.48,0,0,0,.7,0L6.49,3.67a.48.48,0,0,0,0-.7L3.67.15A.47.47,0,0,0,3.32,0Z"/><line class="cls-1" x1="3.32" y1="9.1" x2="3.32" y2="6.1"/><line class="cls-1" x1="3.32" y1="17.9" x2="3.32" y2="14.9"/></g></svg>