<svg xmlns="http://www.w3.org/2000/svg" viewBox="0 0 24 24"><g id="Layer_1" data-name="Layer 1"><path d="M23.06.8a.2.2,0,0,1,.2.2V23a.2.2,0,0,1-.2.2h-22a.2.2,0,0,1-.2-.2V1a.2.2,0,0,1,.2-.2h22m0-.8h-22a1,1,0,0,0-1,1V23a1,1,0,0,0,1,1h22a1,1,0,0,0,1-1V1a1,1,0,0,0-1-1Z"/><path d="M12,2.51a.84.84,0,1,1-.59.25A.83.83,0,0,1,12,2.51m0-.8a1.64,1.64,0,1,0,1.16.48A1.64,1.64,0,0,0,12,1.71Z"/><path d="M12,5.46a1.91,1.91,0,0,1,2,1.83H10a1.92,1.92,0,0,1,2-1.82m0-.8A2.7,2.7,0,0,0,9.22,7.28a.79.79,0,0,0,.23.56.8.8,0,0,0,.56.24h4a.8.8,0,0,0,.8-.8A2.71,2.71,0,0,0,12,4.66Z"/><path d="M10.53,9.8a.2.2,0,0,1,.2.2v2a.2.2,0,0,1-.2.2h-7a.2.2,0,0,1-.2-.2V10a.2.2,0,0,1,.2-.2h7m0-.8h-7a1,1,0,0,0-1,1v2a1,1,0,0,0,1,1h7a1,1,0,0,0,1-1V10a1,1,0,0,0-1-1Z"/><path d="M20.53,9.8a.2.2,0,0,1,.2.2v2a.2.2,0,0,1-.2.2h-7a.2.2,0,0,1-.2-.2V10a.2.2,0,0,1,.2-.2h7m0-.8h-7a1,1,0,0,0-1,1v2a1,1,0,0,0,1,1h7a1,1,0,0,0,1-1V10a1,1,0,0,0-1-1Z"/><path d="M14.73,19.8v1.4H9.33V19.8h5.4M15,19H9a.5.5,0,0,0-.5.5v2A.5.5,0,0,0,9,22h6a.5.5,0,0,0,.5-.5v-2A.5.5,0,0,0,15,19Z"/><path d="M20.47,14.8a.2.2,0,0,1,.2.2v2a.2.2,0,0,1-.2.2h-17a.2.2,0,0,1-.2-.2V15a.2.2,0,0,1,.2-.2h17m0-.8h-17a1,1,0,0,0-1,1v2a1,1,0,0,0,1,1h17a1,1,0,0,0,1-1V15a1,1,0,0,0-1-1Z"/></g></svg>