<svg xmlns="http://www.w3.org/2000/svg" viewBox="0 0 24 20.05"><defs><style>.cls-1{fill:none;stroke:#000;stroke-linecap:round;stroke-linejoin:round;stroke-width:0.8px;}</style></defs><g id="Layer_2" data-name="Layer 2"><g id="jkit-icon"><line class="cls-1" x1="5" y1="17.5" x2="19" y2="17.5"/><line class="cls-1" x1="9" y1="19.65" x2="15" y2="19.65"/><path d="M24,2.22H22.29V3.89h-.58V2.22H20V1.68h1.7V0h.58V1.68H24Z"/><path d="M3.47,3.71v9.47H2.14V4.89H0V3.71Z"/><path d="M12.19,12v1.18H5.39v-.92L9.25,8.54a4.67,4.67,0,0,0,.94-1.17,2.14,2.14,0,0,0,.25-1,1.42,1.42,0,0,0-.52-1.16,2.41,2.41,0,0,0-1.5-.41A3,3,0,0,0,6,5.84L5.08,5A3.81,3.81,0,0,1,6.54,4a5.13,5.13,0,0,1,2-.38,3.68,3.68,0,0,1,2.37.71,2.35,2.35,0,0,1,.88,1.93,3.19,3.19,0,0,1-.33,1.43,5.56,5.56,0,0,1-1.23,1.55L7.34,12Z"/><path d="M19.05,8.55a2.49,2.49,0,0,1,.73,1.84,2.69,2.69,0,0,1-1.62,2.51,4.45,4.45,0,0,1-2,.38,6.31,6.31,0,0,1-1.95-.3,4.16,4.16,0,0,1-1.53-.84l.62-1.07a3.62,3.62,0,0,0,1.25.73,4.51,4.51,0,0,0,1.61.28,2.71,2.71,0,0,0,1.64-.44,1.48,1.48,0,0,0,.59-1.24,1.42,1.42,0,0,0-.59-1.21,2.89,2.89,0,0,0-1.75-.43h-.76v-1l2.38-2.92H13.15V3.71H19.4v.92L16.92,7.69A3.36,3.36,0,0,1,19.05,8.55Z"/></g></g></svg>