<svg xmlns="http://www.w3.org/2000/svg" viewBox="0 0 24 24"><g id="Layer_1" data-name="Layer 1"><path d="M12.39,13.3l4.81,3v3.41h0l-.12.06a.52.52,0,0,1-.18,0H1.12a.48.48,0,0,1-.32-.11V18.41L4.5,15l2.8,2.24.56.44.5-.49,4-3.91m0-.85h-.09a.62.62,0,0,0-.3.12L7.8,16.64l-3-2.39a.64.64,0,0,0-.31-.07H4.44a.63.63,0,0,0-.34.12L0,18.05v1.73a.77.77,0,0,0,.33.6,1.27,1.27,0,0,0,.79.26H16.88a1.61,1.61,0,0,0,.43-.07,1.13,1.13,0,0,0,.36-.19.71.71,0,0,0,.24-.28.62.62,0,0,0,.09-.32V15.9l-5.37-3.4a.75.75,0,0,0-.26-.05Z"/><circle cx="7.6" cy="12.3" r="1.07"/><path d="M7.46,3.4h0L23,7.23a.2.2,0,0,1,.15.24l-2.45,10c0,.1-.11.14-.23.14h0L18.19,17l-1-.25v2.86a.2.2,0,0,1-.2.2H1a.2.2,0,0,1-.2-.2V9.36a.2.2,0,0,1,.2-.2H5.88L6,8.55l1.23-5a.21.21,0,0,1,.2-.15m0-.8a1,1,0,0,0-1,.76l-1.23,5H1a1,1,0,0,0-1,1V19.64a1,1,0,0,0,1,1H17a1,1,0,0,0,1-1V17.8l2.3.57a1,1,0,0,0,.24,0,1,1,0,0,0,1-.76L24,7.66a1,1,0,0,0-.74-1.21L7.7,2.63a1,1,0,0,0-.24,0Z"/><path d="M17,9.21a.2.2,0,0,1,.2.2V19.68a.2.2,0,0,1-.2.2H1a.2.2,0,0,1-.2-.2V9.41a.2.2,0,0,1,.2-.2H17m0-.8H1a1,1,0,0,0-1,1V19.68a1,1,0,0,0,1,1H17a1,1,0,0,0,1-1V9.41a1,1,0,0,0-1-1Z"/></g></svg>