<svg xmlns="http://www.w3.org/2000/svg" viewBox="0 0 17.15 23.9"><defs><style>.cls-1{fill:none;stroke:#000;stroke-linecap:round;stroke-linejoin:round;stroke-width:0.8px;}</style></defs><g id="Layer_2" data-name="Layer 2"><g id="jkit-icon"><path d="M17.15,5.66A5.61,5.61,0,0,1,15.72,9.4a5.73,5.73,0,0,1-3.57,1.87V10.2a4.64,4.64,0,0,0,2.92-1.69,4.58,4.58,0,0,0-.49-6.22,4.66,4.66,0,0,0-6.24-.06,4.57,4.57,0,0,0-1.52,2.9H5.74a5.64,5.64,0,0,1,2-3.74,5.76,5.76,0,0,1,7.88.36,5.62,5.62,0,0,1,1.58,3.91Zm-8.4.18a2.73,2.73,0,0,1,1.9.77,2.65,2.65,0,0,1,.78,1.88v6a2.63,2.63,0,0,1-.78,1.87,2.69,2.69,0,0,1-1.9.78H2.68a2.71,2.71,0,0,1-1.9-.78A2.63,2.63,0,0,1,0,14.5v-6A2.65,2.65,0,0,1,.78,6.61a2.75,2.75,0,0,1,1.9-.77Zm1.61,2.65A1.59,1.59,0,0,0,8.75,6.9H2.68A1.59,1.59,0,0,0,1.07,8.49v6a1.57,1.57,0,0,0,.47,1.12,1.61,1.61,0,0,0,1.14.47H8.75a1.61,1.61,0,0,0,1.14-.47,1.57,1.57,0,0,0,.47-1.12Z"/><line class="cls-1" x1="4.58" y1="19.5" x2="12.58" y2="19.5"/><line class="cls-1" x1="0.58" y1="21.5" x2="16.58" y2="21.5"/><line class="cls-1" x1="3.58" y1="23.5" x2="13.58" y2="23.5"/></g></g></svg>