<svg xmlns="http://www.w3.org/2000/svg" viewBox="0 0 24 24"><defs><style>.cls-1{fill:none;stroke:#000;stroke-linecap:round;stroke-linejoin:round;stroke-width:0.8px;}</style></defs><g id="Layer_1" data-name="Layer 1"><path d="M20,.8a.2.2,0,0,1,.2.2V23a.2.2,0,0,1-.2.2H4a.2.2,0,0,1-.2-.2V1A.2.2,0,0,1,4,.8H20M20,0H4A1,1,0,0,0,3,1V23a1,1,0,0,0,1,1H20a1,1,0,0,0,1-1V1a1,1,0,0,0-1-1Z"/><path d="M14.71,5.64l3.63,2.48V11a0,0,0,0,0,0,0H5.66V9.87L8.44,7.13l2.09,1.8.57.5.53-.55,3.08-3.24m0-.89h-.07a.44.44,0,0,0-.25.11L11.05,8.32l-2.37-2a.54.54,0,0,0-.25-.06h0a.54.54,0,0,0-.27.11L4.86,9.54V11a.68.68,0,0,0,.26.52,1,1,0,0,0,.63.21h12.5a1,1,0,0,0,.34-.05.9.9,0,0,0,.29-.16.72.72,0,0,0,.19-.24.58.58,0,0,0,.07-.28V7.69l-4.26-2.9a.48.48,0,0,0-.2,0Z"/><circle cx="10.78" cy="4.75" r="0.75"/><line class="cls-1" x1="9" y1="16.5" x2="15" y2="16.5"/><line class="cls-1" x1="6" y1="18.5" x2="18" y2="18.5"/><line class="cls-1" x1="10" y1="20.5" x2="14" y2="20.5"/></g></svg>