<svg xmlns="http://www.w3.org/2000/svg" viewBox="0 0 24 24"><defs><style>.cls-1{fill:#221f20;fill-rule:evenodd;}</style></defs><g id="Layer_1" data-name="Layer 1"><path class="cls-1" d="M17.7,11.34a2.09,2.09,0,0,1,.5,0,1.68,1.68,0,0,0,0-.94c-.12-.57-.29-.92-.62-.86s-.35.46-.23,1a2,2,0,0,0,.32.77"/><path class="cls-1" d="M14.84,11.79c.24.11.38.18.44.12s0-.11,0-.21a1.42,1.42,0,0,0-.62-.49A1.68,1.68,0,0,0,13,11.4c-.15.12-.31.28-.28.38s0,.06.08.06.59-.21,1.12-.25a2.07,2.07,0,0,1,.93.2"/><path class="cls-1" d="M14.36,12.07a1.18,1.18,0,0,0-.59.24.41.41,0,0,0-.16.24.09.09,0,0,0,0,.06l0,0a.91.91,0,0,0,.23-.07,2,2,0,0,1,1-.1c.15,0,.23,0,.26,0a.09.09,0,0,0,0-.1.91.91,0,0,0-.81-.26"/><path class="cls-1" d="M16.74,13.07a.37.37,0,0,0,.52-.09.39.39,0,0,0-.25-.46.37.37,0,0,0-.52.09c-.08.15,0,.36.25.46"/><path class="cls-1" d="M18.09,11.89c-.17,0-.31.18-.31.42s.13.43.3.43.31-.19.32-.42-.13-.43-.31-.43"/><path class="cls-1" d="M6.57,16.13c0-.05-.11,0-.18,0l-.16,0A.34.34,0,0,1,5.94,16a.52.52,0,0,1,0-.5l0-.09a1.48,1.48,0,0,0,.11-1.32,1.18,1.18,0,0,0-.9-.65,1.15,1.15,0,0,0-1,.35A1.39,1.39,0,0,0,3.86,15c0,.08.06.1.09.1s.16,0,.22-.2l0,0a2.05,2.05,0,0,1,.16-.37.7.7,0,0,1,.43-.3.68.68,0,0,1,.52.1.67.67,0,0,1,.26.81,1.72,1.72,0,0,0-.13.72.71.71,0,0,0,.64.74.53.53,0,0,0,.51-.26.1.1,0,0,0,0-.12"/><path class="cls-1" d="M9.18,6.74a10.51,10.51,0,0,1,3-2.44,0,0,0,0,1,.05,0,2.9,2.9,0,0,0-.28.68s0,.06.06,0a5.76,5.76,0,0,1,2.63-.92s.06,0,0,.07a2.65,2.65,0,0,0-.41.41,0,0,0,0,0,0,.07,5,5,0,0,1,2.19.57,0,0,0,0,1,0,.09,8.91,8.91,0,0,0-4,0A9.13,9.13,0,0,0,9.24,6.8a0,0,0,0,1-.06-.06Zm4.46,10Zm3.7.44a.12.12,0,0,0,0-.08s0-.06-.07-.06a8.5,8.5,0,0,1-3.72-.37c.19-.64.72-.41,1.51-.35A10.91,10.91,0,0,0,18.74,16a8.4,8.4,0,0,0,2.73-1.36,5.58,5.58,0,0,1,.38,1.3.64.64,0,0,1,.4.07c.17.11.3.33.21.9a4.94,4.94,0,0,1-1.38,2.72,5.91,5.91,0,0,1-1.67,1.24,6.26,6.26,0,0,1-1.09.46c-2.86.94-5.79-.09-6.73-2.3a3.24,3.24,0,0,1-.19-.52,4.58,4.58,0,0,1,1-4.3h0a.38.38,0,0,0,.14-.26.48.48,0,0,0-.11-.24c-.37-.54-1.66-1.46-1.4-3.25a2.43,2.43,0,0,1,2.35-2.14l.27,0c.45,0,.85.08,1.22.1a2.44,2.44,0,0,0,1.85-.62,1.45,1.45,0,0,1,.71-.4.74.74,0,0,1,.28,0,.93.93,0,0,1,.45.15c.54.35.61,1.21.64,1.84,0,.36.06,1.23.07,1.48,0,.57.19.65.49.75l.56.17a3.14,3.14,0,0,1,1.39.65,1,1,0,0,1,.26.5c.08.61-.48,1.36-1.95,2a9.8,9.8,0,0,1-4.9.79l-.47-.06c-1.08-.14-1.69,1.25-1.05,2.2a3.43,3.43,0,0,0,2.69,1,7.07,7.07,0,0,0,5.35-2.07l.06-.09s0-.08,0,0a9.19,9.19,0,0,1-6.2,1.57,4.23,4.23,0,0,1-.67-.18c-.25-.1-.79-.35-.85-.89a5.65,5.65,0,0,0,3.8,0ZM4.53,11.66a3.13,3.13,0,0,0-2,1.26,5.37,5.37,0,0,1-.83-.81c-.7-1.32.76-3.9,1.78-5.36C6,3.16,10,.44,11.8.93c.3.08,1.29,1.22,1.29,1.22A26,26,0,0,0,9.57,4.58a15.92,15.92,0,0,0-5,7.08Zm1.36,6.08a1.54,1.54,0,0,1-.37,0,2.91,2.91,0,0,1-2.67-2.43,2.42,2.42,0,0,1,1.89-2.82,1.92,1.92,0,0,1,.55,0,2.33,2.33,0,0,1,2.05,2.19c.22,1.41-.13,2.84-1.45,3.06Zm16.53-2.55-.17-.58a4,4,0,0,0-.19-.51,1.84,1.84,0,0,0,.33-1.35,1.7,1.7,0,0,0-.49-1,4,4,0,0,0-1.76-.86l-.44-.13s0-1-.05-1.5A5.08,5.08,0,0,0,19.46,8a3.63,3.63,0,0,0-.91-1.63,5.52,5.52,0,0,0,1.8-3.51c0-2.09-2.58-2.73-5.75-1.41l-.67.28L12.7.5C9.09-2.65-2.22,9.91,1.4,13l.79.67A3.76,3.76,0,0,0,2,15.42a3.48,3.48,0,0,0,1.22,2.27,3.64,3.64,0,0,0,2.39,1A9.17,9.17,0,0,0,14,24c4,.12,7.43-1.77,8.85-5.18a7.17,7.17,0,0,0,.49-2.26c0-1-.54-1.36-.89-1.36"/></g></svg>