<svg xmlns="http://www.w3.org/2000/svg" viewBox="0 0 24 24"><defs><style>.cls-1{fill:none;stroke:#000;stroke-linecap:round;stroke-linejoin:round;stroke-width:0.8px;}</style></defs><g id="Layer_1" data-name="Layer 1"><path d="M23,.8a.2.2,0,0,1,.2.2V6a.2.2,0,0,1-.2.2H.8V1A.2.2,0,0,1,1,.8H23M23,0H1A1,1,0,0,0,0,1V7H23a1,1,0,0,0,1-1V1a1,1,0,0,0-1-1Z"/><path d="M5.09,4.22,6.18,2.93a.12.12,0,0,0-.09-.19H3.91a.12.12,0,0,0-.09.19L4.91,4.22A.11.11,0,0,0,5.09,4.22Z"/><path d="M9.2,7.1V23a.2.2,0,0,1-.2.2H1A.2.2,0,0,1,.8,23V7.1H9.2m.8-.8H0V23a1,1,0,0,0,1,1H9a1,1,0,0,0,1-1V6.3Z"/><line class="cls-1" x1="2.5" y1="10.15" x2="7.5" y2="10.15"/><line class="cls-1" x1="15.5" y1="3.5" x2="20.5" y2="3.5"/><line class="cls-1" x1="2.5" y1="15.15" x2="7.5" y2="15.15"/><line class="cls-1" x1="2.5" y1="20.15" x2="7.5" y2="20.15"/></g></svg>