<svg xmlns="http://www.w3.org/2000/svg" viewBox="0 0 24 24"><defs><style>.cls-1{fill:none;stroke:#000;stroke-linecap:round;stroke-linejoin:round;stroke-width:0.8px;}</style></defs><g id="Layer_1" data-name="Layer 1"><path d="M23,.8a.2.2,0,0,1,.2.2V23a.2.2,0,0,1-.2.2H1A.2.2,0,0,1,.8,23V1A.2.2,0,0,1,1,.8H23M23,0H1A1,1,0,0,0,0,1V23a1,1,0,0,0,1,1H23a1,1,0,0,0,1-1V1a1,1,0,0,0-1-1Z"/><path d="M23,17.59a.2.2,0,0,1,.2.2V23a.2.2,0,0,1-.2.2H1A.2.2,0,0,1,.8,23V17.79a.2.2,0,0,1,.2-.2H23m0-.8H1a1,1,0,0,0-1,1V23a1,1,0,0,0,1,1H23a1,1,0,0,0,1-1V17.79a1,1,0,0,0-1-1Z"/><path d="M9,.8a.2.2,0,0,1,.2.2V16.48a.2.2,0,0,1-.2.2H1a.2.2,0,0,1-.2-.2V1A.2.2,0,0,1,1,.8H9M9,0H1A1,1,0,0,0,0,1V16.48a1,1,0,0,0,1,1H9a1,1,0,0,0,1-1V1A1,1,0,0,0,9,0Z"/><line class="cls-1" x1="2.47" y1="2.5" x2="7.47" y2="2.5"/><line class="cls-1" x1="2.47" y1="5.5" x2="6.94" y2="5.5"/><line class="cls-1" x1="2.47" y1="8.5" x2="5.94" y2="8.5"/><line class="cls-1" x1="2.47" y1="11.5" x2="6.94" y2="11.5"/><line class="cls-1" x1="2.47" y1="14.5" x2="6.94" y2="14.5"/></g></svg>