<svg xmlns="http://www.w3.org/2000/svg" viewBox="0 0 24 24"><defs><style>.cls-1{fill-rule:evenodd;}</style></defs><g id="Layer_1" data-name="Layer 1"><path class="cls-1" d="M10.48,1.71a10.86,10.86,0,0,0-2.78.55,11.16,11.16,0,0,0-3.79,19,11.31,11.31,0,0,0,5.75,2.63,13.74,13.74,0,0,0,3.14,0A11.21,11.21,0,0,0,21,18.26a10.86,10.86,0,0,0,1.37-5c0-.55,0-.6-.1-.7l-.11-.11-5.23,0-5.22,0,0-5.24c0-2.88,0-5.24,0-5.25l-.17-.11A2,2,0,0,0,10.48,1.71Zm.24,11.14v10.2l-.23,0a10.21,10.21,0,0,1-3.7-1A10.21,10.21,0,0,1,3.91,5.76c.28-.28.67-.65.87-.81A10.46,10.46,0,0,1,10.21,2.7l.47-.05S10.72,7.23,10.72,12.85Zm3.22,1.8a14.79,14.79,0,0,0-1.32,1.42.49.49,0,0,0,.52.57c.14,0,.32-.15,1.8-1.64l1.65-1.64h4.83l0,.32a2.49,2.49,0,0,1,0,.39S20,15.43,18.43,17l-2.88,2.91v.21a.44.44,0,0,0,.6.45,31.2,31.2,0,0,0,2.47-2.37C19.91,16.94,21,15.91,21,15.93a11.33,11.33,0,0,1-.6,1.48A10.18,10.18,0,0,1,12,23l-.29,0v-.68l0-.67L14.36,19C17,16.4,17,16.32,17,16.14a.45.45,0,0,0-.49-.46h-.2L14.05,18c-1.26,1.26-2.31,2.29-2.33,2.29s0-1.55,0-3.45V13.36h3.54Z"/><path class="cls-1" d="M23,10.23A10.3,10.3,0,0,0,20,3.91a10.19,10.19,0,0,0-3.32-2.22,10.08,10.08,0,0,0-3-.74v9.28Zm1,.53a.37.37,0,0,1-.38.38H13.19a.38.38,0,0,1-.39-.38V.38A.38.38,0,0,1,13.19,0a11.3,11.3,0,0,1,3.88.84,11.16,11.16,0,0,1,6.87,9.92Z"/></g></svg>