<svg xmlns="http://www.w3.org/2000/svg" viewBox="0 0 24 24"><defs><style>.cls-1{fill:none;stroke:#000;stroke-linecap:round;stroke-linejoin:round;stroke-width:0.8px;}</style></defs><g id="Layer_1" data-name="Layer 1"><polyline class="cls-1" points="3.97 21 0.89 21 0.89 3 3.97 3"/><polyline class="cls-1" points="20.07 21 23.15 21 23.15 3 20.07 3"/><path d="M14.36,6l3,2.36V11.2H6.67V10.09L9,7.47l1.67,1.67.62.63.56-.69L14.36,6M14.3,5h-.06a.35.35,0,0,0-.21.1L11.18,8.58l-2-2a.31.31,0,0,0-.21-.07h0a.34.34,0,0,0-.23.1L5.87,9.79v1.47a.73.73,0,0,0,.22.52.77.77,0,0,0,.54.22H17.37a.72.72,0,0,0,.29-.06.82.82,0,0,0,.25-.16.63.63,0,0,0,.16-.24.67.67,0,0,0,.06-.28V8L14.47,5a.33.33,0,0,0-.17,0Z"/><circle cx="10.86" cy="5" r="1"/><path d="M19,.8a.2.2,0,0,1,.2.2V23a.2.2,0,0,1-.2.2H5a.2.2,0,0,1-.2-.2V1A.2.2,0,0,1,5,.8H19M19,0H5A1,1,0,0,0,4,1V23a1,1,0,0,0,1,1H19a1,1,0,0,0,1-1V1a1,1,0,0,0-1-1Z"/><line class="cls-1" x1="7.5" y1="17.5" x2="16.5" y2="17.5"/><line class="cls-1" x1="9.19" y1="19.5" x2="14.81" y2="19.5"/></g></svg>