<svg xmlns="http://www.w3.org/2000/svg" viewBox="0 0 24.00009 24"><g id="Layer_2" data-name="Layer 2"><g id="jkit-icon"><path d="M11.16614,2.8a2.15933,2.15933,0,1,1-1.52692.63244A2.14516,2.14516,0,0,1,11.16614,2.8m0-.8a2.95935,2.95935,0,1,0,2.09259.86676A2.95013,2.95013,0,0,0,11.16614,2Z"/><path d="M11.16614,8.56885a4.94743,4.94743,0,0,1,5.10852,4.71557H11.16614l-5.10852-.0169a4.94908,4.94908,0,0,1,5.10852-4.69867m0-.8A5.73483,5.73483,0,0,0,5.25763,13.2644a.79994.79994,0,0,0,.79736.8031l5.10852.01691h5.11115a.8.8,0,0,0,.8-.8,5.72867,5.72867,0,0,0-5.90851-5.51556Z"/><rect x="5.11669" y="16.10006" width="2.33333" height="0.79974" rx="0.39987"/><rect x="8.61669" y="16.09981" width="5" height="0.79974" rx="0.39987"/><path d="M20.00006,16.8a3.2,3.2,0,1,1-2.26276.93728A3.179,3.179,0,0,1,20.00006,16.8m0-.8a4,4,0,1,0,2.82843,1.17157A3.98757,3.98757,0,0,0,20.00006,16Z"/><path d="M21.45418,20.31577H20.33793V21.4197h-.67519V20.31577H18.546v-.631h1.11677V18.5803h.67519v1.10444h1.11625Z"/><path d="M20.77783.8a.20023.20023,0,0,1,.2.2V16.93137l.44306.22088a3.20114,3.20114,0,1,1-4.1756,4.44629L17.0141,21.2H1A.20023.20023,0,0,1,.8,21V1A.20023.20023,0,0,1,1,.8H20.77783m0-.8H1A1,1,0,0,0,0,1V21a1,1,0,0,0,1,1H16.55334a3.98254,3.98254,0,0,0,6.27515.82843,4,4,0,0,0,0-5.65686,3.96009,3.96009,0,0,0-1.05066-.73529V1a1,1,0,0,0-1-1Z"/></g></g></svg>