<svg xmlns="http://www.w3.org/2000/svg" viewBox="0 0 24 24"><g id="Layer_1" data-name="Layer 1"><path d="M15.47,3.8A1.2,1.2,0,0,1,16.67,5v8a1.2,1.2,0,0,1-1.2,1.2h-9A1.2,1.2,0,0,1,5.27,13V5a1.2,1.2,0,0,1,1.2-1.2h9m0-.8h-9a2,2,0,0,0-2,2v8a2,2,0,0,0,2,2h9a2,2,0,0,0,2-2V5a2,2,0,0,0-2-2Z"/><rect x="4.47" y="7.26" width="13" height="0.8" rx="0.4"/><rect x="4.44" y="17.1" width="5" height="0.8" rx="0.4"/><rect x="10.44" y="17.1" width="3" height="0.8" rx="0.4"/><path d="M20,16.8a3.21,3.21,0,1,1-2.26.94A3.15,3.15,0,0,1,20,16.8m0-.8a4,4,0,1,0,2.83,1.17A4,4,0,0,0,20,16Z"/><path d="M21.45,20.32H20.34v1.1h-.68v-1.1H18.55v-.64h1.11v-1.1h.68v1.1h1.11Z"/><path d="M20.78.8A.2.2,0,0,1,21,1V16.93l.44.22a3,3,0,0,1,.84.59,3.2,3.2,0,1,1-4.52,4.52,2.76,2.76,0,0,1-.49-.66L17,21.2H1A.2.2,0,0,1,.8,21V1A.2.2,0,0,1,1,.8H20.78m0-.8H1A1,1,0,0,0,0,1V21a1,1,0,0,0,1,1H16.55a4.08,4.08,0,0,0,.62.83,4,4,0,0,0,5.66-5.66,4.05,4.05,0,0,0-1-.73V1a1,1,0,0,0-1-1Z"/><rect x="6.72" y="3.09" width="3.44" height="0.8" rx="0.4" transform="translate(11.93 -4.96) rotate(90)"/><rect x="11.92" y="3.09" width="3.44" height="0.8" rx="0.4" transform="translate(17.13 -10.16) rotate(90)"/></g></svg>