<svg id="jkit-icon" xmlns="http://www.w3.org/2000/svg" viewBox="0 0 24 24"><defs><style>.cls-1{fill:none;stroke:#000;stroke-linecap:round;stroke-linejoin:round;stroke-width:0.8px;}</style></defs><path d="M20,16.8a3.21,3.21,0,1,1-2.26.94A3.15,3.15,0,0,1,20,16.8m0-.8a4,4,0,1,0,2.83,1.17A4,4,0,0,0,20,16Z"/><path d="M21.45,20.32H20.34v1.1h-.68v-1.1H18.55v-.64h1.11v-1.1h.68v1.1h1.11Z"/><path d="M20.78.8A.2.2,0,0,1,21,1V16.93l.44.22a3,3,0,0,1,.84.59,3.2,3.2,0,1,1-4.52,4.52,2.76,2.76,0,0,1-.49-.66L17,21.2H1A.2.2,0,0,1,.8,21V1A.2.2,0,0,1,1,.8H20.78m0-.8H1A1,1,0,0,0,0,1V21a1,1,0,0,0,1,1H16.55a4.08,4.08,0,0,0,.62.83,4,4,0,0,0,5.66-5.66,4.05,4.05,0,0,0-1-.73V1a1,1,0,0,0-1-1Z"/><line class="cls-1" x1="10.3" y1="12.17" x2="10.3" y2="7.83"/><line class="cls-1" x1="8.13" y1="10" x2="12.47" y2="10"/><path d="M14.64,16H4.24a.94.94,0,0,1-.7-.32A1.11,1.11,0,0,1,3.25,15V5.05a1.11,1.11,0,0,1,.29-.76A.94.94,0,0,1,4.24,4h10.4a.85.85,0,0,1,.47.13.93.93,0,0,1,.36.35l3.21,5.29a.52.52,0,0,1,0,.52l-3.21,5.29a.93.93,0,0,1-.36.35.85.85,0,0,1-.47.13ZM4.24,4.9a.15.15,0,0,0-.1,0,.15.15,0,0,0,0,.11V15a.15.15,0,0,0,0,.11.15.15,0,0,0,.1,0h10.4l.07,0a.12.12,0,0,0,0-.05l3.06-5L14.76,5l0,0-.07,0Z"/></svg>