<svg xmlns="http://www.w3.org/2000/svg" viewBox="0 0 24 24"><g id="Layer_1" data-name="Layer 1"><path d="M14,8.27l3.55,2.24V13H5.11V12.1l2.7-2.48,2.07,1.65.55.44.5-.49,3-3m0-.88h-.07a.5.5,0,0,0-.24.09l-3.25,3.16L8.05,8.79a.54.54,0,0,0-.25-.06h0a.55.55,0,0,0-.26.1L4.31,11.75v1.34a.62.62,0,0,0,.25.47,1,1,0,0,0,.62.2H17.43a1,1,0,0,0,.34-.06.92.92,0,0,0,.28-.14.66.66,0,0,0,.19-.22.59.59,0,0,0,.07-.25v-3L14.13,7.43a.48.48,0,0,0-.2,0Z"/><circle cx="10.22" cy="7.24" r="0.84"/><path d="M17.31,5a.2.2,0,0,1,.2.2v7.55a.2.2,0,0,1-.2.2h-12a.2.2,0,0,1-.2-.2V5.21a.2.2,0,0,1,.2-.2h12m0-.8h-12a1,1,0,0,0-1,1v7.55a1,1,0,0,0,1,1h12a1,1,0,0,0,1-1V5.21a1,1,0,0,0-1-1Z"/><rect x="4.25" y="14.99" width="2.33" height="0.8" rx="0.4"/><rect x="7.58" y="14.99" width="8" height="0.8" rx="0.4"/><path d="M20,16.8a3.21,3.21,0,1,1-2.26.94A3.15,3.15,0,0,1,20,16.8m0-.8a4,4,0,1,0,2.83,1.17A4,4,0,0,0,20,16Z"/><path d="M21.45,20.32H20.34v1.1h-.68v-1.1H18.55v-.64h1.11v-1.1h.68v1.1h1.11Z"/><path d="M20.78.8A.2.2,0,0,1,21,1V16.93l.44.22a3,3,0,0,1,.84.59,3.2,3.2,0,1,1-4.52,4.52,2.76,2.76,0,0,1-.49-.66L17,21.2H1A.2.2,0,0,1,.8,21V1A.2.2,0,0,1,1,.8H20.78m0-.8H1A1,1,0,0,0,0,1V21a1,1,0,0,0,1,1H16.55a4.08,4.08,0,0,0,.62.83,4,4,0,0,0,5.66-5.66,4.05,4.05,0,0,0-1-.73V1a1,1,0,0,0-1-1Z"/></g></svg>