<svg xmlns="http://www.w3.org/2000/svg" viewBox="0 0 24 24"><g id="Layer_1" data-name="Layer 1"><path d="M10,.8a.2.2,0,0,1,.2.2V11a.2.2,0,0,1-.2.2H1A.2.2,0,0,1,.8,11V1A.2.2,0,0,1,1,.8h9M10,0H1A1,1,0,0,0,0,1V11a1,1,0,0,0,1,1h9a1,1,0,0,0,1-1V1a1,1,0,0,0-1-1Z"/><path d="M23,.8a.2.2,0,0,1,.2.2V11a.2.2,0,0,1-.2.2H14a.2.2,0,0,1-.2-.2V1A.2.2,0,0,1,14,.8h9M23,0H14a1,1,0,0,0-1,1V11a1,1,0,0,0,1,1h9a1,1,0,0,0,1-1V1a1,1,0,0,0-1-1Z"/><rect x="-0.02" y="14.11" width="9.46" height="0.8" rx="0.4"/><rect y="17.14" width="8" height="0.8" rx="0.4"/><rect y="20.17" width="8" height="0.8" rx="0.4"/><rect y="23.2" width="5" height="0.8" rx="0.4"/><rect x="13" y="14.11" width="9.46" height="0.8" rx="0.4"/><rect x="13.02" y="17.14" width="8" height="0.8" rx="0.4"/><rect x="13.02" y="20.17" width="8" height="0.8" rx="0.4"/><rect x="13.02" y="23.2" width="5" height="0.8" rx="0.4"/></g></svg>