<svg xmlns="http://www.w3.org/2000/svg" viewBox="0 0 24 24"><g id="Layer_1" data-name="Layer 1"><path d="M9,.8a.2.2,0,0,1,.2.2v9a.2.2,0,0,1-.2.2H1A.2.2,0,0,1,.8,10V1A.2.2,0,0,1,1,.8H9M9,0H1A1,1,0,0,0,0,1v9a1,1,0,0,0,1,1H9a1,1,0,0,0,1-1V1A1,1,0,0,0,9,0Z"/><rect x="11.56" y="2.1" width="12.44" height="0.8" rx="0.4"/><rect x="11.56" y="4.1" width="10.11" height="0.8" rx="0.4"/><rect x="11.56" y="8.1" width="5.11" height="0.8" rx="0.4"/><path d="M9,13.8a.2.2,0,0,1,.2.2v9a.2.2,0,0,1-.2.2H1A.2.2,0,0,1,.8,23V14a.2.2,0,0,1,.2-.2H9M9,13H1a1,1,0,0,0-1,1v9a1,1,0,0,0,1,1H9a1,1,0,0,0,1-1V14a1,1,0,0,0-1-1Z"/><rect x="11.56" y="15.1" width="12.44" height="0.8" rx="0.4"/><rect x="11.56" y="17.1" width="10.11" height="0.8" rx="0.4"/><rect x="11.56" y="21.1" width="5.11" height="0.8" rx="0.4"/></g></svg>