<svg xmlns="http://www.w3.org/2000/svg" viewBox="0 0 24 24"><defs><style>.cls-1{fill:none;stroke:#000;stroke-linecap:round;stroke-linejoin:round;stroke-width:0.8px;}</style></defs><g id="Layer_1" data-name="Layer 1"><rect x="5.22" y="3.55" width="2.33" height="0.8" rx="0.4"/><rect x="8.56" y="3.55" width="8" height="0.8" rx="0.4"/><line class="cls-1" x1="10.78" y1="18.21" x2="10.78" y2="6.45"/><line class="cls-1" x1="9.65" y1="18.45" x2="11.9" y2="18.45"/><line class="cls-1" x1="15.83" y1="8.16" x2="15.83" y2="6.45"/><line class="cls-1" x1="5.73" y1="6.45" x2="15.83" y2="6.45"/><line class="cls-1" x1="5.73" y1="8.16" x2="5.73" y2="6.45"/><path d="M20,16.8a3.21,3.21,0,1,1-2.26.94A3.15,3.15,0,0,1,20,16.8m0-.8a4,4,0,1,0,2.83,1.17A4,4,0,0,0,20,16Z"/><path d="M21.45,20.32H20.34v1.1h-.68v-1.1H18.55v-.64h1.11v-1.1h.68v1.1h1.11Z"/><path d="M20.78.8A.2.2,0,0,1,21,1V16.93l.44.22a3,3,0,0,1,.84.59,3.2,3.2,0,1,1-4.52,4.52,2.76,2.76,0,0,1-.49-.66L17,21.2H1A.2.2,0,0,1,.8,21V1A.2.2,0,0,1,1,.8H20.78m0-.8H1A1,1,0,0,0,0,1V21a1,1,0,0,0,1,1H16.55a4.08,4.08,0,0,0,.62.83,4,4,0,0,0,5.66-5.66,4.05,4.05,0,0,0-1-.73V1a1,1,0,0,0-1-1Z"/></g></svg>