<svg xmlns="http://www.w3.org/2000/svg" viewBox="0 0 24 24"><defs><style>.cls-1,.cls-2{fill:none;stroke:#000;stroke-linejoin:round;stroke-width:0.5px;}.cls-1{stroke-linecap:round;}</style></defs><g id="Layer_1" data-name="Layer 1"><polyline class="cls-1" points="15.5 21 11.35 21 11.35 3 15.5 3"/><line class="cls-1" x1="8.5" y1="12" x2="15.5" y2="12"/><polyline class="cls-2" points="6.28 10.8 6.28 15 0.28 15 0.28 10.8"/><polygon class="cls-1" points="6.28 10.81 0.28 10.81 1.55 9.3 4.82 9.3 6.28 10.81"/><polyline class="cls-2" points="23.78 1.75 23.78 5.95 17.78 5.95 17.78 1.75"/><polygon class="cls-1" points="23.78 1.76 17.78 1.76 19.05 0.25 22.32 0.25 23.78 1.76"/><polyline class="cls-2" points="23.78 10.75 23.78 14.95 17.78 14.95 17.78 10.75"/><polygon class="cls-1" points="23.78 10.76 17.78 10.76 19.05 9.25 22.32 9.25 23.78 10.76"/><polyline class="cls-2" points="23.78 19.55 23.78 23.75 17.78 23.75 17.78 19.55"/><polygon class="cls-1" points="23.78 19.56 17.78 19.56 19.05 18.05 22.32 18.05 23.78 19.56"/></g></svg>