<svg xmlns="http://www.w3.org/2000/svg" viewBox="0 0 24 24"><defs><style>.cls-1,.cls-2{fill:none;stroke:#000;stroke-linejoin:round;stroke-width:0.8px;}.cls-2{stroke-linecap:round;}</style></defs><g id="Layer_1" data-name="Layer 1"><polyline class="cls-1" points="23.6 2.9 23.6 9.9 13.6 9.9 13.6 2.9"/><polygon class="cls-2" points="23.6 2.92 13.6 2.92 15.72 0.4 21.18 0.4 23.6 2.92"/><polyline class="cls-1" points="10.4 2.9 10.4 9.9 0.4 9.9 0.4 2.9"/><polygon class="cls-2" points="10.4 2.92 0.4 2.92 2.52 0.4 7.98 0.4 10.4 2.92"/><polyline class="cls-1" points="23.6 16.59 23.6 23.59 13.6 23.59 13.6 16.59"/><polygon class="cls-2" points="23.6 16.61 13.6 16.61 15.72 14.09 21.18 14.09 23.6 16.61"/><polyline class="cls-1" points="10.4 16.59 10.4 23.59 0.4 23.59 0.4 16.59"/><polygon class="cls-2" points="10.4 16.61 0.4 16.61 2.52 14.09 7.98 14.09 10.4 16.61"/></g></svg>