<svg xmlns="http://www.w3.org/2000/svg" viewBox="0 0 24 24"><defs><style>.cls-1{fill:none;stroke:#000;stroke-linecap:round;stroke-miterlimit:10;stroke-width:0.8px;}</style></defs><g id="Layer_1" data-name="Layer 1"><path d="M19.58,1.86a1,1,0,0,1-.23-.68A1,1,0,0,1,19.58.5a.82.82,0,0,1,.61-.26A.79.79,0,0,1,20.8.5a1,1,0,0,1,.24.68.94.94,0,0,1-.24.68.79.79,0,0,1-.61.26A.82.82,0,0,1,19.58,1.86Zm.87-.28a.64.64,0,0,0,.1-.4.64.64,0,0,0-.1-.4.3.3,0,0,0-.26-.14.3.3,0,0,0-.25.14.66.66,0,0,0-.1.4.64.64,0,0,0,.1.4.3.3,0,0,0,.25.14A.28.28,0,0,0,20.45,1.58ZM22.22.28h.58l-2.32,3.4H19.9Zm-.15,3.33a.8.8,0,0,1-.3-.33,1.12,1.12,0,0,1-.11-.5,1.1,1.1,0,0,1,.11-.49.8.8,0,0,1,.3-.33.89.89,0,0,1,.43-.11.78.78,0,0,1,.61.25,1,1,0,0,1,.24.68,1,1,0,0,1-.24.69.78.78,0,0,1-.61.25A.79.79,0,0,1,22.07,3.61Zm.69-.42a.69.69,0,0,0,.1-.41.68.68,0,0,0-.1-.4.29.29,0,0,0-.26-.13.29.29,0,0,0-.25.13.66.66,0,0,0-.1.4.67.67,0,0,0,.1.41.29.29,0,0,0,.25.13A.29.29,0,0,0,22.76,3.19Z"/><path d="M21.5,5.8a1.7,1.7,0,0,1,0,3.4H2.5a1.7,1.7,0,0,1,0-3.4h19m0-.8H2.5a2.5,2.5,0,0,0,0,5h19a2.5,2.5,0,0,0,0-5Z"/><line class="cls-1" x1="11" y1="9.5" x2="15" y2="5.5"/><line class="cls-1" x1="15" y1="9.5" x2="19" y2="5.5"/><line class="cls-1" x1="7" y1="9.5" x2="11" y2="5.5"/><line class="cls-1" x1="3" y1="9.5" x2="7" y2="5.5"/><path d="M21.5,12.8a1.7,1.7,0,0,1,0,3.4H2.5a1.7,1.7,0,0,1,0-3.4h19m0-.8H2.5a2.5,2.5,0,0,0,0,5h19a2.5,2.5,0,0,0,0-5Z"/><line class="cls-1" x1="7" y1="16.5" x2="11" y2="12.5"/><line class="cls-1" x1="3" y1="16.5" x2="7" y2="12.5"/><path d="M21.5,19.8a1.7,1.7,0,0,1,0,3.4H2.5a1.7,1.7,0,0,1,0-3.4h19m0-.8H2.5a2.5,2.5,0,0,0,0,5h19a2.5,2.5,0,0,0,0-5Z"/><line class="cls-1" x1="11" y1="23.5" x2="15" y2="19.5"/><line class="cls-1" x1="7" y1="23.5" x2="11" y2="19.5"/><line class="cls-1" x1="3" y1="23.5" x2="7" y2="19.5"/></g></svg>