<svg xmlns="http://www.w3.org/2000/svg" viewBox="0 0 24 24"><g id="Layer_1" data-name="Layer 1"><rect x="6.96" y="7.02" width="9.22" height="0.8" rx="0.35" transform="translate(-2.05 5.59) rotate(-25)"/><path d="M4.5,8.3A3.68,3.68,0,0,1,7.12,9.38a3.72,3.72,0,0,1,0,5.24,3.72,3.72,0,0,1-5.24,0,3.72,3.72,0,0,1,0-5.24A3.68,3.68,0,0,1,4.5,8.3m0-.8A4.5,4.5,0,1,0,7.68,8.82,4.48,4.48,0,0,0,4.5,7.5Z"/><path d="M5.45,12.28l.11-.81H4.85v-.53a.39.39,0,0,1,.42-.43h.32V9.82A3.25,3.25,0,0,0,5,9.76c-.58,0-1,.39-1,1.09v.62H3.41v.81h.65v2h.79v-2Z"/><path d="M19.5.8a3.68,3.68,0,0,1,2.62,1.08,3.72,3.72,0,0,1,0,5.24,3.72,3.72,0,0,1-5.24,0,3.72,3.72,0,0,1,0-5.24A3.68,3.68,0,0,1,19.5.8m0-.8a4.5,4.5,0,1,0,3.18,1.32A4.48,4.48,0,0,0,19.5,0Z"/><path d="M18.75,6.11a2.2,2.2,0,0,0,.91-.17,2.43,2.43,0,0,0,.77-.5,2.31,2.31,0,0,0,.51-.76,2.23,2.23,0,0,0,.18-.88V3.69a1.81,1.81,0,0,0,.41-.42,1.89,1.89,0,0,1-.48.13A.85.85,0,0,0,21.42,3a1.6,1.6,0,0,1-.53.19.82.82,0,0,0-.47-.24.88.88,0,0,0-.53.08.83.83,0,0,0-.36.38.81.81,0,0,0-.06.53,2.44,2.44,0,0,1-.95-.25,2.35,2.35,0,0,1-.76-.6.76.76,0,0,0-.09.59.81.81,0,0,0,.34.49,1,1,0,0,1-.37-.1h0a.84.84,0,0,0,.66.8.77.77,0,0,1-.37,0,.85.85,0,0,0,.3.4.78.78,0,0,0,.47.16,1.68,1.68,0,0,1-1,.36h-.2a2.38,2.38,0,0,0,1.28.36"/><path d="M19.5,15.8a3.68,3.68,0,0,1,2.62,1.08,3.72,3.72,0,0,1,0,5.24,3.72,3.72,0,0,1-5.24,0,3.72,3.72,0,0,1,0-5.24A3.68,3.68,0,0,1,19.5,15.8m0-.8a4.5,4.5,0,1,0,3.18,1.32A4.48,4.48,0,0,0,19.5,15Z"/><path d="M21.42,18.22l-.59,2.65c0,.19-.15.24-.32.15l-.88-.63-.43.4a.25.25,0,0,1-.18.08l.07-.87,1.64-1.44c.07-.06,0-.09-.11,0l-2,1.23-.88-.26c-.19-.06-.19-.18,0-.27L21.17,18c.16-.05.3,0,.25.27Z"/><rect x="6.7" y="16.61" width="9.22" height="0.8" rx="0.35" transform="translate(14.37 37.21) rotate(-155)"/></g></svg>