<svg xmlns="http://www.w3.org/2000/svg" viewBox="0 0 24 24"><defs><style>.cls-1{fill-rule:evenodd;}</style></defs><g id="Layer_1" data-name="Layer 1"><path class="cls-1" d="M11.05,4.2a4.14,4.14,0,0,0-3,3,4,4,0,0,0,1,3.68l.39.41-.44.15-.45.15-.35-.32a4.22,4.22,0,0,0-.88-.59l-.53-.26.23-.26A3.08,3.08,0,0,0,7,6a3.14,3.14,0,0,0-3-.9A3.3,3.3,0,0,0,1.69,7.38a4.35,4.35,0,0,0,0,1.44,3.39,3.39,0,0,0,.68,1.3l.26.3-.34.14a3.73,3.73,0,0,0-2.2,2.62,10.89,10.89,0,0,0,0,2.61A8.21,8.21,0,0,0,3.44,17a.46.46,0,0,0,.46-.49c0-.3-.13-.39-.78-.53a7.75,7.75,0,0,1-1.79-.55L1,15.24l0-1A3.71,3.71,0,0,1,1.13,13a2.86,2.86,0,0,1,1.66-1.61,4.61,4.61,0,0,1,1.7-.16,12.3,12.3,0,0,1,1.74,0,3.09,3.09,0,0,1,1.32.6l.2.18-.45.44a4.76,4.76,0,0,0-1.42,2.95,16.22,16.22,0,0,0,0,1.69c0,1.29,0,1.18.86,1.59a12.53,12.53,0,0,0,10.59,0c.93-.43.87-.32.89-1.61a16.22,16.22,0,0,0-.05-1.69,4.72,4.72,0,0,0-1.43-2.95l-.45-.45.21-.17a3,3,0,0,1,1.32-.6,12.3,12.3,0,0,1,1.74,0,4.61,4.61,0,0,1,1.7.16A2.86,2.86,0,0,1,22.87,13,3.71,3.71,0,0,1,23,14.29l0,.94-.23.12a9.26,9.26,0,0,1-1.88.6c-.71.15-.84.23-.84.55a.46.46,0,0,0,.48.48,8.35,8.35,0,0,0,1.71-.39,5.5,5.5,0,0,0,1.64-.8,10.89,10.89,0,0,0,0-2.61,3.75,3.75,0,0,0-2.2-2.62l-.34-.14.26-.3a3,3,0,0,0,.75-2,2.83,2.83,0,0,0-.92-2.19A2.93,2.93,0,0,0,19.23,5,3.16,3.16,0,0,0,16.14,8.1a3.19,3.19,0,0,0,.77,2l.23.26-.53.26a4.22,4.22,0,0,0-.88.59l-.35.32-.46-.16-.46-.15.21-.18a4.38,4.38,0,0,0,1.26-2.17A4,4,0,0,0,13.75,4.5,4,4,0,0,0,11.05,4.2Zm1.56.91A3.18,3.18,0,0,1,15,7.49a2.9,2.9,0,0,1-.85,2.74,2.93,2.93,0,0,1-4.28,0A2.93,2.93,0,0,1,9.86,6,2.91,2.91,0,0,1,12.61,5.11Zm-7,1A2.75,2.75,0,0,1,6.7,7.19a1.56,1.56,0,0,1,.17.91A1.48,1.48,0,0,1,6.69,9,2.72,2.72,0,0,1,5.6,10.1a1.86,1.86,0,0,1-.86.13,1.56,1.56,0,0,1-.91-.17A2.18,2.18,0,0,1,3,6.76a2.67,2.67,0,0,1,1-.73A2.83,2.83,0,0,1,5.6,6.1Zm14.57,0a2.34,2.34,0,0,1,1.06,1.05,1.65,1.65,0,0,1,.16.91,1.56,1.56,0,0,1-.17.91,2.42,2.42,0,0,1-1,1.05,1.56,1.56,0,0,1-.91.17,1.86,1.86,0,0,1-.86-.13A2.81,2.81,0,0,1,17.3,9a1.56,1.56,0,0,1-.17-.91,1.74,1.74,0,0,1,.55-1.44A1.9,1.9,0,0,1,19.35,6,1.66,1.66,0,0,1,20.17,6.14Zm-6,6.07A3.83,3.83,0,0,1,17.07,15a10.6,10.6,0,0,1,.08,2.76,10.89,10.89,0,0,1-2,.78,10,10,0,0,1-3.18.42,10,10,0,0,1-3.18-.42,10.89,10.89,0,0,1-2-.78A10.6,10.6,0,0,1,6.93,15a3.89,3.89,0,0,1,2.85-2.76A27.06,27.06,0,0,1,14.19,12.21Z"/></g></svg>