<svg xmlns="http://www.w3.org/2000/svg" viewBox="0 0 24 24"><defs><style>.cls-1{fill:none;stroke:#000;stroke-linecap:round;stroke-linejoin:round;stroke-width:0.8px;}</style></defs><g id="Layer_1" data-name="Layer 1"><path d="M20.26,15.09c.39,0,.61-.24.61-.68v-.15h-.61V13h1.3v1.34a1.22,1.22,0,0,1-1.3,1.38Zm-1.9,0c.4,0,.61-.24.61-.68v-.15h-.61V13h1.3v1.34a1.22,1.22,0,0,1-1.3,1.38Z"/><path d="M6.59,4.46,5.44,4.29l-.51-1a.16.16,0,0,0-.07-.07.15.15,0,0,0-.19.07l-.51,1L3,4.46a.13.13,0,0,0-.09,0,.21.21,0,0,0,0,.1.16.16,0,0,0,.05.11l.83.81-.2,1.14a.19.19,0,0,0,0,.08.1.1,0,0,0,.05.06.11.11,0,0,0,.07,0h.08l1-.55,1,.55a.14.14,0,0,0,.09,0A.15.15,0,0,0,6,6.66l-.2-1.14.83-.81a.2.2,0,0,0,0-.09.15.15,0,0,0-.13-.16Z"/><path d="M12.59,4.46l-1.15-.17-.51-1a.16.16,0,0,0-.07-.07.15.15,0,0,0-.19.07l-.51,1L9,4.46a.13.13,0,0,0-.09,0,.21.21,0,0,0,0,.1.16.16,0,0,0,0,.11l.83.81-.2,1.14a.19.19,0,0,0,0,.08.1.1,0,0,0,0,.06.11.11,0,0,0,.07,0h.08l1-.55,1,.55a.14.14,0,0,0,.09,0A.15.15,0,0,0,12,6.66l-.2-1.14.83-.81a.2.2,0,0,0,.05-.09.15.15,0,0,0-.13-.16Z"/><path d="M18.59,4.46l-1.15-.17-.51-1a.16.16,0,0,0-.07-.07.15.15,0,0,0-.19.07l-.51,1L15,4.46a.13.13,0,0,0-.09,0,.21.21,0,0,0,0,.1.16.16,0,0,0,0,.11l.83.81-.2,1.14a.19.19,0,0,0,0,.08.1.1,0,0,0,0,.06.11.11,0,0,0,.07,0h.08l1-.55,1,.55a.14.14,0,0,0,.09,0A.15.15,0,0,0,18,6.66l-.2-1.14.83-.81a.2.2,0,0,0,0-.09.15.15,0,0,0-.13-.16Z"/><path d="M21.87,10.37A1.34,1.34,0,0,1,23.2,11.7v6.38a1.33,1.33,0,0,1-1.33,1.32H20.33V23l-5.19-3.43-.2-.14H10.18a1.33,1.33,0,0,1-1.33-1.32V11.7a1.34,1.34,0,0,1,1.33-1.33H21.87m0-.8H10.18A2.13,2.13,0,0,0,8.05,11.7v6.38a2.12,2.12,0,0,0,2.13,2.12H14.7l5.6,3.71a.58.58,0,0,0,.3.09.53.53,0,0,0,.53-.53V20.2h.74A2.12,2.12,0,0,0,24,18.08V11.7a2.13,2.13,0,0,0-2.13-2.13Z"/><path d="M18.72.8A2.08,2.08,0,0,1,20.8,2.88v7.49h1.07A1.34,1.34,0,0,1,23.2,11.7v6.38a1.33,1.33,0,0,1-1.33,1.32H20.33V23l-5.19-3.43-.2-.14H10.18a1.33,1.33,0,0,1-1.33-1.32V15.92l-1.24.82-2.92,2V13.6H2.88A2.08,2.08,0,0,1,.8,11.52V2.88A2.08,2.08,0,0,1,2.88.8H18.72m0-.8H2.88A2.88,2.88,0,0,0,0,2.88v8.64A2.88,2.88,0,0,0,2.88,14.4h1v4.42a.72.72,0,0,0,.72.72.77.77,0,0,0,.4-.12l3-2v.67a2.12,2.12,0,0,0,2.13,2.12H14.7l5.6,3.71a.58.58,0,0,0,.3.09.53.53,0,0,0,.53-.53V20.2h.74A2.12,2.12,0,0,0,24,18.08V11.7a2.13,2.13,0,0,0-2.13-2.13H21.6V2.88A2.88,2.88,0,0,0,18.72,0Z"/><line class="cls-1" x1="10.5" y1="13" x2="16.5" y2="13"/><line class="cls-1" x1="10.5" y1="15.5" x2="14.5" y2="15.5"/></g></svg>